<svg xmlns="http://www.w3.org/2000/svg" width="700" height="550"><rect width="700" height="550" x="0" y="0" fill="#FFFFFF" id="background"/><g transform="translate(350,275)" id="chord_diagram"><g><g><path fill="#17becf" d="M1.3777276490407723e-14,-225A225,225,0,0,1,107.045089134748,-197.9048986057037L101.81177366593809,-188.22954800720262A214,214,0,0,0,1.310372075087668e-14,-214Z"/></g><g><path fill="#7ed321" d="M116.172765955983,-192.68857893019089A225,225,0,0,1,219.72823669484492,-48.420057816716835L208.98596734531918,-46.05285499012179A214,214,0,0,0,110.49320850924605,-183.26824840471488Z"/></g><g><path fill="#1f77b4" d="M221.7501775782615,-38.10326421724896A225,225,0,0,1,221.8362698459773,37.59879493843834L210.99094109795175,35.76063163033691A214,214,0,0,0,210.9090577855465,-36.2404379666279Z"/></g><g><path fill="#8c564b" d="M219.83779973687624,47.92016075566826A225,225,0,0,1,185.98480979243772,126.62800056255631L176.8922190914741,120.43729831283133A214,214,0,0,0,209.0901739719623,45.5773973409467Z"/></g><g><path fill="#7847e9" d="M179.86674575854963,135.1774898798956A225,225,0,0,1,148.9479666364867,168.6401590216756L141.66606604536958,160.39552902506034A214,214,0,0,0,171.07326041035387,128.56881259687847Z"/></g><g><path fill="#f59dbe" d="M140.90786142616795,175.41372405916206A225,225,0,0,1,102.682236239416,200.2032925824967L97.66221580104455,190.4155760562413A214,214,0,0,0,134.01903264533306,166.83794199404747Z"/></g><g><path fill="#d81f1f" d="M93.2182586163521,204.7812400112249A225,225,0,0,1,59.887773355391786,216.88350468058476L56.959926658017075,206.28031111842284A214,214,0,0,0,88.66092152844155,194.76971272178724Z"/></g><g><path fill="#0a788f" d="M49.69134463018009,219.44423042961208A225,225,0,0,1,24.699944656067853,223.6401411508837L23.492391806215647,212.7066231390627A214,214,0,0,0,47.26199000381573,208.71584583083103Z"/></g><g><path fill="#2ca02c" d="M14.226311172037521,224.54979864260926A225,225,0,0,1,-21.229008097380976,223.99627053859922L-20.191145479286796,213.04534175671213A214,214,0,0,0,13.53080262584902,213.57180848674835Z"/></g><g><path fill="#cccccc" d="M-31.66914105230138,222.76010752603221A225,225,0,0,1,-46.646625088506745,220.111545285231L-44.36612341751308,209.3505364046197A214,214,0,0,0,-30.12087193418887,211.8696133803151Z"/></g><g><path fill="#cccccc" d="M-56.87754901874534,217.69231593609413A225,225,0,0,1,-66.62890329416363,214.90832753948132L-63.37149024422675,204.40169819310668A214,214,0,0,0,-54.09686884449557,207.04958049032953Z"/></g><g><path fill="#cccccc" d="M-76.59496203559974,211.56136648917033A225,225,0,0,1,-86.05003134009695,207.8951469043189L-81.84314091902554,197.7313841667744A214,214,0,0,0,-72.85031944719263,201.21836634969978Z"/></g><g><path fill="#bcbd22" d="M-95.66729051623508,203.64864233596617A225,225,0,0,1,-104.74644403813491,199.13106854874724L-99.62550677404832,189.39577186414184A214,214,0,0,0,-90.99022297988581,193.69248648843006Z"/></g><g><path fill="#cccccc" d="M-113.93390687046042,194.0207846217339A225,225,0,0,1,-130.9384832023573,182.97571865323005L-124.53704624579763,174.03023907462767A214,214,0,0,0,-108.36380475679347,184.5353240402269Z"/></g><g><path fill="#e377c2" d="M-139.34270663006592,176.65958821702088A225,225,0,0,1,-147.1613835913537,170.2014311910404L-139.96682706022085,161.88047233281173A214,214,0,0,0,-132.53039652815158,168.02289723752207Z"/></g><g><path fill="#cccccc" d="M-154.95118600276652,163.1414415663171A225,225,0,0,1,-162.14488741482586,155.9937033512361L-154.21780403010104,148.36734452073122A214,214,0,0,0,-147.3757946870757,155.16563775640824Z"/></g><g><path fill="#ff7f0e" d="M-169.25466291443416,148.2493139333915A225,225,0,0,1,-181.91389947169714,132.40971708678057L-173.0203310530808,125.93635314031573A214,214,0,0,0,-160.97999050528404,141.00156969664792Z"/></g><g><path fill="#69f0bf" d="M-187.90044072002172,123.7676224915935A225,225,0,0,1,-198.27993311930044,106.3488040468991L-188.58624750013465,101.14952918238403A214,214,0,0,0,-178.71419695148734,117.71676094756003Z"/></g><g><path fill="#cccccc" d="M-203.03125268342168,96.9706679042718A225,225,0,0,1,-210.9368366050216,78.298473567921L-200.624369037665,74.47054819348931A214,214,0,0,0,-193.10528033000998,92.22987969561852Z"/></g><g><path fill="#acb414" d="M-214.36405376752762,68.359728293437A225,225,0,0,1,-217.22658523310656,58.631140769764095L-206.60661884393247,55.764729443242295A214,214,0,0,0,-203.88403336111517,65.01769713242453Z"/></g><g><path fill="#7f7f7f" d="M-219.72823669484518,48.42005781671574A225,225,0,0,1,-221.6868465520338,38.47001515225862L-210.8488229428233,36.589258855925976A214,214,0,0,0,-208.9859673453194,46.05285499012075Z"/></g><g><path fill="#cccccc" d="M-223.2418633467168,28.072592496700768A225,225,0,0,1,-224.28005613814068,17.984894180185297L-213.31525339360937,17.105632686931795A214,214,0,0,0,-212.32781669421067,26.700154641306508Z"/></g><g><path fill="#d62728" d="M-224.87534187847112,7.488699155443567A225,225,0,0,1,-224.9843739205045,-2.651695985328986L-213.98513786216873,-2.5220575149351245A214,214,0,0,0,-213.88143627552364,7.1225849745107706Z"/></g><g><path fill="#cd65ff" d="M-224.61491509625253,-13.158264182758446A225,225,0,0,1,-222.51820682261567,-33.326380428237904L-211.63953893351,-31.69709071841294A214,214,0,0,0,-213.63374146932463,-12.514971267156922Z"/></g><g><path fill="#cccccc" d="M-220.7185651995104,-43.68426463006411A225,225,0,0,1,-218.5259869232698,-53.585380834803416L-207.84249422924327,-50.96565110510192A214,214,0,0,0,-209.9278797897566,-41.548589470372086Z"/></g><g><path fill="#50b9f1" d="M-215.78436543555216,-63.73466587012186A225,225,0,0,1,-212.693336123773,-73.39308392852642L-202.29499524661077,-69.8049776031318A214,214,0,0,0,-205.23490756981406,-60.61874887202701Z"/></g><g><path fill="#e7d522" d="M-209.0328247708227,-83.24829228477014A225,225,0,0,1,-205.06937714363482,-92.5826687772699L-195.04376314994602,-88.05640497038115A214,214,0,0,0,-198.81344222647138,-79.17837577307027Z"/></g><g><path fill="#f76a78" d="M-200.52080483646236,-102.06079966244327A225,225,0,0,1,-195.7183191411622,-110.99252025500722L-186.14986798314982,-105.56621926476242A214,214,0,0,0,-190.71756548890195,-97.07116056783494Z"/></g><g><path fill="#cccccc" d="M-190.3199940606093,-120.01374863226981A225,225,0,0,1,-184.7189169424477,-128.46759016813974L-175.68821433637248,-122.18695242658625A214,214,0,0,0,-181.01546101764617,-114.14640981024773Z"/></g><g><path fill="#eeac88" d="M-178.5163039068053,-136.9559390441069A225,225,0,0,1,-165.46157848657913,-152.4711974266931L-157.37234576056858,-145.01704999694365A214,214,0,0,0,-169.78884016025037,-130.26031535750613Z"/></g><g><path fill="#c96375" d="M-158.15873103199283,-160.03379580060505A225,225,0,0,1,-143.1090275110052,-173.6225971607796L-136.1125861660227,-165.13438129958595A214,214,0,0,0,-150.42652640376207,-152.20992133924213Z"/></g><g><path fill="#aab2e9" d="M-134.84255659621041,-180.11797503469163A225,225,0,0,1,-126.589556533286,-186.0109786456326L-120.40073376943647,-176.91710857851277A214,214,0,0,0,-128.25025382928456,-171.31220736632895Z"/></g><g><path fill="#cccccc" d="M-117.7624325942456,-191.72117637205798A225,225,0,0,1,-109.00394539182477,-196.8327713797072L-103.67486361711335,-187.20983589003262A214,214,0,0,0,-112.00515811186025,-182.34814108275737Z"/></g><g><path fill="#c58aec" d="M-99.69051066986941,-201.70969754174104A225,225,0,0,1,-90.50030050910459,-205.99683397509236L-86.07584137310391,-195.92587764742117A214,214,0,0,0,-94.81675237045357,-191.84833455081147Z"/></g><g><path fill="#9467bd" d="M-80.77899296619091,-209.99941498815676A225,225,0,0,1,-71.2344600089433,-213.4259864853253L-67.75188640850608,-202.9918271460427A214,214,0,0,0,-76.82979775451047,-199.7327769220691Z"/></g><g><path fill="#cccccc" d="M-61.1871527213299,-216.52051251984568A225,225,0,0,1,-51.36868124422195,-219.05766041668005L-48.85732349450444,-208.34817479630902A214,214,0,0,0,-58.195780810509326,-205.93506524109767Z"/></g><g><path fill="#853269" d="M-41.07999286553343,-221.21806930304703A225,225,0,0,1,-31.07027426171767,-222.84442568146423L-29.55128307558925,-211.94980931481487A214,214,0,0,0,-39.071637658774016,-210.40296369267585Z"/></g><g><path fill="#cccccc" d="M-20.62685636269288,-224.05252240622696A225,225,0,0,1,-10.510192713032351,-224.7543900553111L-9.996361069284102,-213.766397652607A214,214,0,0,0,-19.618432273850118,-213.09884353303363Z"/></g></g><g fill-opacity="0.6"><path fill="#7ed321" d="M188.66632527345246,-98.8636318764986A213,213,0,0,1,192.07746776564983,-92.06110132263113Q0,0,106.0714345447728,-157.63518253744618L120.33048292449013,-172.1062894817008L111.63469519621604,-153.74555222330153Q0,0,188.66632527345246,-98.8636318764986Z"/><path fill="#7ed321" d="M192.92945103143214,-90.26199047611476A213,213,0,0,1,196.03060964793488,-83.31266458983877Q0,0,189.46094780145043,-14.302071814114122L209.6531709955018,-12.06432308631051L189.85092177691928,-7.525124613857438Q0,0,192.92945103143214,-90.26199047611476Z"/><path fill="#7ed321" d="M196.80066037286872,-81.47699108829912A213,213,0,0,1,199.5855354276227,-74.39498671328042Q0,0,41.09519753726496,185.5025194960251L41.751207534670506,205.80776630000355L34.442551364563805,186.85210904750147Q0,0,196.80066037286872,-81.47699108829912Z"/><path fill="#7ed321" d="M200.2720893325425,-72.5264795393939A213,213,0,0,1,202.73502363714977,-65.32618304205691Q0,0,11.127127525975753,189.67389655147772L8.551529628820106,209.8258119036059L4.344599783754139,189.95032101241367Q0,0,200.2720893325425,-72.5264795393939Z"/><path fill="#7ed321" d="M203.3366860581266,-63.428637876741924A213,213,0,0,1,205.47267641384448,-56.124675921839966Q0,0,-48.88841709800008,183.60262164155492L-57.65098528063711,201.93158221578852L-55.41576731284633,181.7390787176178Q0,0,203.3366860581266,-63.428637876741924Z"/><path fill="#7ed321" d="M205.98822513530297,-54.20194743371991A213,213,0,0,1,207.79293249652946,-46.80915727176415Q0,0,-188.62406717184768,22.824576306041003L-208.89661317141847,21.498953591064886L-189.3190114584311,16.0720845070711Q0,0,205.98822513530297,-54.20194743371991Z"/><path fill="#8c564b" d="M185.65683432573803,104.40565055659323A213,213,0,0,1,181.8088244009592,110.97094831504859Q0,0,-65.51430254075208,178.34762729736215L-75.92027739016804,195.79609669500547L-71.84332586540701,175.89353748389092Q0,0,185.65683432573803,104.40565055659323Z"/><path fill="#8c564b" d="M180.76378794632902,112.6652251908041A213,213,0,0,1,176.6238568686855,119.0504648660815Q0,0,-143.50958930340587,124.51906592151971L-161.0490504049354,134.7709292231399L-147.86600073824343,119.31322569471412Q0,0,180.76378794632902,112.6652251908041Z"/><path fill="#f59dbe" d="M104.7816532836612,185.44488435959244A213,213,0,0,1,98.0904202965519,189.0694831167785Q0,0,188.62406717184757,-22.824576306041955L208.89661317141835,-21.498953591065973L189.31901145843102,-16.07208450707212Q0,0,104.7816532836612,185.44488435959244Z"/><path fill="#2ca02c" d="M-11.515500145376464,212.68848877266922A213,213,0,0,1,-19.105691593401833,212.14139753649644Q0,0,-186.21015365683235,-37.759484571414426L-205.03286050897017,-45.40403188604705L-184.74248815332746,-44.38708225280943Q0,0,-11.515500145376464,212.68848877266922Z"/><path fill="#bcbd22" d="M-91.464918571716,192.362077007578A213,213,0,0,1,-98.2779962723683,188.97204938479226Q0,0,-104.2391232187924,158.85277835334645L-118.32966002550619,173.48801560409908L-109.84704756376462,155.0278237656842Q0,0,-91.464918571716,192.362077007578Z"/><path fill="#e377c2" d="M-132.69113734786197,166.61951287088445A213,213,0,0,1,-138.55834220622933,161.77325429458804Q0,0,-131.48999371435383,137.1509444116197L-148.01575722400304,148.9675656423404L-136.3053052219989,132.36639969545791Q0,0,-132.69113734786197,166.61951287088445Z"/><path fill="#ff7f0e" d="M-167.0083716663846,132.20137591319823A213,213,0,0,1,-171.62420907305776,126.15122219006585Q0,0,-96.97540789671858,163.3884030868319L-110.39217529126779,178.64368904179628L-102.74998713416458,159.82002422703175Q0,0,-167.0083716663846,132.20137591319823Z"/><path fill="#69f0bf" d="M-178.4246476743212,116.33419575642559A213,213,0,0,1,-182.466400395045,109.8863627884512Q0,0,-175.30848382839434,73.25937139908862L-195.1775199591557,77.49668188118366L-177.81353022864718,66.95034329729742Q0,0,-178.4246476743212,116.33419575642559Z"/><path fill="#69f0bf" d="M-183.4853921952379,108.17629523587749A213,213,0,0,1,-187.23250305513764,101.55289163636786Q0,0,-150.20502877228964,-116.35484232087481L-163.69228957418224,-131.54784047623914L-145.95280227372456,-121.64612409956621Q0,0,-183.4853921952379,108.17629523587749Z"/><path fill="#acb414" d="M-203.23148882627115,63.764895902504435A213,213,0,0,1,-205.37955794400432,56.46447714028148Q0,0,0.8878472361141737,-189.9979255867951L4.732457937014461,-209.94666904210314L7.67428163256134,-189.84495095056948Q0,0,-203.23148882627115,63.764895902504435Z"/><path fill="#7f7f7f" d="M-208.2213202340538,44.86515128680195A213,213,0,0,1,-209.6910785226544,37.398550613706746Q0,0,183.39888305922142,49.64725261915334L201.69145098767123,58.48554179015368L181.50836346055158,56.16684069691216Q0,0,-208.2213202340538,44.86515128680195Z"/><path fill="#d62728" d="M-212.912793531919,6.094452431058239A213,213,0,0,1,-212.99461214776713,-1.514990436358313Q0,0,-189.62082398069052,-11.997629469357092L-209.31058804384,-17.00228610340104L-189.07123250702335,-18.763502825301842Q0,0,-212.912793531919,6.094452431058239Z"/><path fill="#cd65ff" d="M-211.7529614261355,-23.014850146406893A213,213,0,0,1,-210.7956938231842,-30.564284150007154Q0,0,98.86072250467092,-162.2546071637242L112.4532259582075,-177.35352258016283L104.59359767463951,-158.619605741143Q0,0,-211.7529614261355,-23.014850146406893Z"/><path fill="#50b9f1" d="M-203.99169518256198,-61.28938159701664A213,213,0,0,1,-201.67215924505987,-68.5371445672725Q0,0,118.29538124338256,148.68154820448558L127.7911025670452,166.641633767492L112.90876320157372,152.81233979064305Q0,0,-203.99169518256198,-61.28938159701664Z"/><path fill="#e7d522" d="M-197.51398482140036,-79.73221306330102A213,213,0,0,1,-194.5397784065223,-86.73681235520016Q0,0,187.40401607197927,-31.30071500929857L207.715703276542,-30.889911173902096L188.40251896154754,-24.586395606996227Q0,0,-197.51398482140036,-79.73221306330102Z"/><path fill="#f76a78" d="M-189.37280712623746,-97.50353799287932A213,213,0,0,1,-185.76897906898213,-104.205980709689Q0,0,-160.23933419639144,-102.0948371676902L-175.06261683498727,-115.98741391584879L-156.4900916914026,-107.7536598098478Q0,0,-189.37280712623746,-97.50353799287932Z"/><path fill="#eeac88" d="M-162.33914410487898,-137.8948958130624A213,213,0,0,1,-157.30973153454175,-143.60587858625564Q0,0,-132.92331220547595,-135.76226674715463L-144.21131356873636,-152.6535195754739L-127.98885384653923,-140.42383448349935Q0,0,-162.33914410487898,-137.8948958130624Z"/><path fill="#c96375" d="M-142.00475832931457,-158.7565702950053A213,213,0,0,1,-136.24311423876503,-163.72786513762043Q0,0,-98.68621683739985,-162.36080378687984L-105.85119137173949,-181.371236102044L-92.82347083230735,-165.78239732445596Q0,0,-142.00475832931457,-158.7565702950053Z"/><path fill="#aab2e9" d="M-126.85277922337954,-171.10631900460172A213,213,0,0,1,-120.65965443960273,-175.52848142257614Q0,0,185.44968948129204,41.332948978900085L204.12192728529308,49.3380056481566L183.85485999383013,47.93110114162957Q0,0,-126.85277922337954,-171.10631900460172Z"/><path fill="#c58aec" d="M-93.48035796250917,-191.39075911652878A213,213,0,0,1,-86.58394237050658,-194.60786449571046Q0,0,-171.82938657165107,81.08428892461285L-191.4873103080494,86.21258603584978L-174.61617076760814,74.89454523833837Q0,0,-93.48035796250917,-191.39075911652878Z"/><path fill="#9467bd" d="M-75.54097910885947,-199.15461449656357A213,213,0,0,1,-68.37867653326016,-201.72594427975736Q0,0,-50.8141997822771,-183.07899142306533L-52.53939859561187,-203.3214489305332L-44.24192273280913,-184.77730453955687Q0,0,-75.54097910885947,-199.15461449656357Z"/><path fill="#853269" d="M-37.91004181807271,-209.5992097536438A213,213,0,0,1,-30.398659788353342,-210.81964207130216Q0,0,-16.533935589002965,-189.27923545370396L-14.534313991945796,-209.4964288879014L-9.762055008927641,-189.74905080659212Q0,0,-37.91004181807271,-209.5992097536438Z"/><path fill="#0a788f" d="M36.652581748082575,209.8227543694919A213,213,0,0,1,24.371666911271834,211.60109132980864Q0,0,77.90871691541462,173.29233055329885L80.49388946588655,193.96065002637425L67.68508470059379,177.53514950305882Q0,0,36.652581748082575,209.8227543694919Z"/><path fill="#2ca02c" d="M2.880207575369669,212.9805258804729A213,213,0,0,1,-9.527283295188163,212.78682025213223Q0,0,-27.62154689260603,187.981515440374L-36.56825163991861,206.79159308830614L-38.521495890324104,186.0540092402519Q0,0,2.880207575369669,212.9805258804729Z"/><path fill="#d81f1f" d="M74.01519728186616,199.72668968199127A213,213,0,0,1,57.65255866151195,205.04921965172394Q0,0,151.35240717954306,114.85838602800322L162.02014654161306,133.60191658293766L141.5876573270913,126.70017873951939Q0,0,74.01519728186616,199.72668968199127Z"/><path fill="#7847e9" d="M157.39284938129302,143.51477611604184A213,213,0,0,1,141.74854231632358,158.9853790485069Q0,0,111.4757003747874,153.8608729532971L114.26250986268009,176.19329964525025L95.0090823836021,164.53958266820146Q0,0,157.39284938129302,143.51477611604184Z"/><path fill="#1f77b4" d="M212.90242125110044,-6.446628996536203A213,213,0,0,1,210.16903357571238,34.611809051985304Q0,0,180.97552059315487,57.860702951455494L192.9128624035006,82.97365557385092L166.4725282948296,91.58000504000401Q0,0,212.90242125110044,-6.446628996536203Z"/><path fill="#17becf" d="M10.59189868294055,-212.73648413539772A213,213,0,0,1,100.45944736460892,-187.82145626950444Q0,0,113.06667333129874,-152.69553818561099L158.88305481068002,-137.3177879738326L167.4623785674868,-89.75718224476377Q0,0,10.59189868294055,-212.73648413539772Z"/></g><g><g id="information" transform="rotate(-75.79570930758608) translate(225,0)"><text x="8" dy="0.35em" style="font-family: Arial, sans-serif; font-size: 10px; fill: black; font-weight: bold;">information (22)</text></g><g id="visualization" transform="rotate(-35.670660971324445) translate(225,0)"><text x="8" dy="0.35em" style="font-family: Arial, sans-serif; font-size: 10px; fill: black; font-weight: bold;">visualization (36)</text></g><g id="abstract" transform="rotate(-0.0651596735581279) translate(225,0)"><text x="8" dy="0.35em" style="font-family: Arial, sans-serif; font-size: 10px; fill: black; font-weight: bold;">abstract (15)</text></g><g id="datum" transform="rotate(23.27299966257796) translate(225,0)"><text x="8" dy="0.35em" style="font-family: Arial, sans-serif; font-size: 10px; fill: black; font-weight: bold;">datum (17)</text></g><g id="visual" transform="rotate(42.73726153714662) translate(225,0)"><text x="8" dy="0.35em" style="font-family: Arial, sans-serif; font-size: 10px; fill: black; font-weight: bold;">visual (9)</text></g><g id="representation" transform="rotate(57.03632679629203) translate(225,0)"><text x="8" dy="0.35em" style="font-family: Arial, sans-serif; font-size: 10px; fill: black; font-weight: bold;">representation (9)</text></g><g id="interactive" transform="rotate(70.04409290158162) translate(225,0)"><text x="8" dy="0.35em" style="font-family: Arial, sans-serif; font-size: 10px; fill: black; font-weight: bold;">interactive (7)</text></g><g id="use" transform="rotate(80.46926069915963) translate(225,0)"><text x="8" dy="0.35em" style="font-family: Arial, sans-serif; font-size: 10px; fill: black; font-weight: bold;">use (5)</text></g><g id="computer" transform="rotate(90.89442849673762) translate(225,0)"><text x="8" dy="0.35em" transform="rotate(180) translate(-16)" text-anchor="end" style="font-family: Arial, sans-serif; font-size: 10px; fill: black; font-weight: bold;">computer (7)</text></g><g id="graphic" transform="rotate(100.02829714045981) translate(225,0)"><text x="8" dy="0.35em" transform="rotate(180) translate(-16)" text-anchor="end" style="font-family: Arial, sans-serif; font-size: 10px; fill: black; font-weight: bold;">graphic (3)</text></g><g id="infovis" transform="rotate(105.93391789954242) translate(225,0)"><text x="8" dy="0.35em" transform="rotate(180) translate(-16)" text-anchor="end" style="font-family: Arial, sans-serif; font-size: 10px; fill: black; font-weight: bold;">infovis (2)</text></g><g id="reinforce" transform="rotate(111.19388908169717) translate(225,0)"><text x="8" dy="0.35em" transform="rotate(180) translate(-16)" text-anchor="end" style="font-family: Arial, sans-serif; font-size: 10px; fill: black; font-weight: bold;">reinforce (2)</text></g><g id="human" transform="rotate(116.45386026385191) translate(225,0)"><text x="8" dy="0.35em" transform="rotate(180) translate(-16)" text-anchor="end" style="font-family: Arial, sans-serif; font-size: 10px; fill: black; font-weight: bold;">human (2)</text></g><g id="cognition" transform="rotate(123.00513059986244) translate(225,0)"><text x="8" dy="0.35em" transform="rotate(180) translate(-16)" text-anchor="end" style="font-family: Arial, sans-serif; font-size: 10px; fill: black; font-weight: bold;">cognition (4)</text></g><g id="enable" transform="rotate(129.556400935873) translate(225,0)"><text x="8" dy="0.35em" transform="rotate(180) translate(-16)" text-anchor="end" style="font-family: Arial, sans-serif; font-size: 10px; fill: black; font-weight: bold;">enable (2)</text></g><g id="user" transform="rotate(134.81637211802774) translate(225,0)"><text x="8" dy="0.35em" transform="rotate(180) translate(-16)" text-anchor="end" style="font-family: Arial, sans-serif; font-size: 10px; fill: black; font-weight: bold;">user (2)</text></g><g id="amplify" transform="rotate(141.36764245403825) translate(225,0)"><text x="8" dy="0.35em" transform="rotate(180) translate(-16)" text-anchor="end" style="font-family: Arial, sans-serif; font-size: 10px; fill: black; font-weight: bold;">amplify (4)</text></g><g id="map" transform="rotate(149.21021194390465) translate(225,0)"><text x="8" dy="0.35em" transform="rotate(180) translate(-16)" text-anchor="end" style="font-family: Arial, sans-serif; font-size: 10px; fill: black; font-weight: bold;">map (4)</text></g><g id="data" transform="rotate(157.05278143377097) translate(225,0)"><text x="8" dy="0.35em" transform="rotate(180) translate(-16)" text-anchor="end" style="font-family: Arial, sans-serif; font-size: 10px; fill: black; font-weight: bold;">data (4)</text></g><g id="structure" transform="rotate(163.6040517697815) translate(225,0)"><text x="8" dy="0.35em" transform="rotate(180) translate(-16)" text-anchor="end" style="font-family: Arial, sans-serif; font-size: 10px; fill: black; font-weight: bold;">structure (2)</text></g><g id="geographic" transform="rotate(168.8640229519363) translate(225,0)"><text x="8" dy="0.35em" transform="rotate(180) translate(-16)" text-anchor="end" style="font-family: Arial, sans-serif; font-size: 10px; fill: black; font-weight: bold;">geographic (2)</text></g><g id="technique" transform="rotate(174.123994134091) translate(225,0)"><text x="8" dy="0.35em" transform="rotate(180) translate(-16)" text-anchor="end" style="font-family: Arial, sans-serif; font-size: 10px; fill: black; font-weight: bold;">technique (2)</text></g><g id="contrast" transform="rotate(179.3839653162458) translate(225,0)"><text x="8" dy="0.35em" transform="rotate(180) translate(-16)" text-anchor="end" style="font-family: Arial, sans-serif; font-size: 10px; fill: black; font-weight: bold;">contrast (2)</text></g><g id="scientific" transform="rotate(185.93523565225627) translate(225,0)"><text x="8" dy="0.35em" transform="rotate(180) translate(-16)" text-anchor="end" style="font-family: Arial, sans-serif; font-size: 10px; fill: black; font-weight: bold;">scientific (4)</text></g><g id="science" transform="rotate(192.4865059882668) translate(225,0)"><text x="8" dy="0.35em" transform="rotate(180) translate(-16)" text-anchor="end" style="font-family: Arial, sans-serif; font-size: 10px; fill: black; font-weight: bold;">science (2)</text></g><g id="sensory" transform="rotate(197.7464771704216) translate(225,0)"><text x="8" dy="0.35em" transform="rotate(180) translate(-16)" text-anchor="end" style="font-family: Arial, sans-serif; font-size: 10px; fill: black; font-weight: bold;">sensory (2)</text></g><g id="represent" transform="rotate(203.00644835257629) translate(225,0)"><text x="8" dy="0.35em" transform="rotate(180) translate(-16)" text-anchor="end" style="font-family: Arial, sans-serif; font-size: 10px; fill: black; font-weight: bold;">represent (2)</text></g><g id="take" transform="rotate(208.26641953473109) translate(225,0)"><text x="8" dy="0.35em" transform="rotate(180) translate(-16)" text-anchor="end" style="font-family: Arial, sans-serif; font-size: 10px; fill: black; font-weight: bold;">take (2)</text></g><g id="advantage" transform="rotate(213.52639071688577) translate(225,0)"><text x="8" dy="0.35em" transform="rotate(180) translate(-16)" text-anchor="end" style="font-family: Arial, sans-serif; font-size: 10px; fill: black; font-weight: bold;">advantage (2)</text></g><g id="screen" transform="rotate(220.0776610528963) translate(225,0)"><text x="8" dy="0.35em" transform="rotate(180) translate(-16)" text-anchor="end" style="font-family: Arial, sans-serif; font-size: 10px; fill: black; font-weight: bold;">screen (4)</text></g><g id="space" transform="rotate(227.92023054276268) translate(225,0)"><text x="8" dy="0.35em" transform="rotate(180) translate(-16)" text-anchor="end" style="font-family: Arial, sans-serif; font-size: 10px; fill: black; font-weight: bold;">space (4)</text></g><g id="kind" transform="rotate(234.47150087877327) translate(225,0)"><text x="8" dy="0.35em" transform="rotate(180) translate(-16)" text-anchor="end" style="font-family: Arial, sans-serif; font-size: 10px; fill: black; font-weight: bold;">kind (2)</text></g><g id="coordinate" transform="rotate(239.73147206092796) translate(225,0)"><text x="8" dy="0.35em" transform="rotate(180) translate(-16)" text-anchor="end" style="font-family: Arial, sans-serif; font-size: 10px; fill: black; font-weight: bold;">coordinate (2)</text></g><g id="unstructured" transform="rotate(244.99144324308276) translate(225,0)"><text x="8" dy="0.35em" transform="rotate(180) translate(-16)" text-anchor="end" style="font-family: Arial, sans-serif; font-size: 10px; fill: black; font-weight: bold;">unstructured (2)</text></g><g id="criterion" transform="rotate(250.25141442523744) translate(225,0)"><text x="8" dy="0.35em" transform="rotate(180) translate(-16)" text-anchor="end" style="font-family: Arial, sans-serif; font-size: 10px; fill: black; font-weight: bold;">criterion (2)</text></g><g id="record" transform="rotate(255.51138560739224) translate(225,0)"><text x="8" dy="0.35em" transform="rotate(180) translate(-16)" text-anchor="end" style="font-family: Arial, sans-serif; font-size: 10px; fill: black; font-weight: bold;">record (2)</text></g><g id="spatial" transform="rotate(260.77135678954687) translate(225,0)"><text x="8" dy="0.35em" transform="rotate(180) translate(-16)" text-anchor="end" style="font-family: Arial, sans-serif; font-size: 10px; fill: black; font-weight: bold;">spatial (2)</text></g><g id="temporal" transform="rotate(266.0313279717016) translate(225,0)"><text x="8" dy="0.35em" transform="rotate(180) translate(-16)" text-anchor="end" style="font-family: Arial, sans-serif; font-size: 10px; fill: black; font-weight: bold;">temporal (2)</text></g></g></g></svg>