<svg xmlns="http://www.w3.org/2000/svg" width="805" height="805"><rect width="805" height="805" x="0" y="0" fill="#FFFFFF" id="background"/><g transform="translate(10,10)" id="viz"><g id="links"><path d="M0,465.29000365901254C107.5,465.29000365901254,107.5,212.4740009427101,215,212.4740009427101" fill="none" stroke="#ccc"/><path d="M0,465.29000365901254C107.5,465.29000365901254,107.5,497.78449218809783,215,497.78449218809783" fill="none" stroke="#ccc"/><path d="M0,465.29000365901254C107.5,465.29000365901254,107.5,718.1060063753149,215,718.1060063753149" fill="none" stroke="#ccc"/><path d="M215,212.4740009427101C322.5,212.4740009427101,322.5,67.71650861862591,430,67.71650861862591" fill="none" stroke="#ccc"/><path d="M215,212.4740009427101C322.5,212.4740009427101,322.5,140.08137293123903,430,140.08137293123903" fill="none" stroke="#ccc"/><path d="M215,212.4740009427101C322.5,212.4740009427101,322.5,174.8623119028041,430,174.8623119028041" fill="none" stroke="#ccc"/><path d="M215,212.4740009427101C322.5,212.4740009427101,322.5,204.54249245634654,430,204.54249245634654" fill="none" stroke="#ccc"/><path d="M215,212.4740009427101C322.5,212.4740009427101,322.5,237.35219391856597,430,237.35219391856597" fill="none" stroke="#ccc"/><path d="M215,212.4740009427101C322.5,212.4740009427101,322.5,272.71279202506986,430,272.71279202506986" fill="none" stroke="#ccc"/><path d="M215,212.4740009427101C322.5,212.4740009427101,322.5,308.21376568909443,430,308.21376568909443" fill="none" stroke="#ccc"/><path d="M215,212.4740009427101C322.5,212.4740009427101,322.5,343.05785497983777,430,343.05785497983777" fill="none" stroke="#ccc"/><path d="M215,212.4740009427101C322.5,212.4740009427101,322.5,357.23149326679436,430,357.23149326679436" fill="none" stroke="#ccc"/><path d="M215,497.78449218809783C322.5,497.78449218809783,322.5,384.75963061437847,430,384.75963061437847" fill="none" stroke="#ccc"/><path d="M215,497.78449218809783C322.5,497.78449218809783,322.5,448.64460591886314,430,448.64460591886314" fill="none" stroke="#ccc"/><path d="M215,497.78449218809783C322.5,497.78449218809783,322.5,525.8570975025395,430,525.8570975025395" fill="none" stroke="#ccc"/><path d="M215,497.78449218809783C322.5,497.78449218809783,322.5,575.050597405037,430,575.050597405037" fill="none" stroke="#ccc"/><path d="M215,497.78449218809783C322.5,497.78449218809783,322.5,600.3282521935994,430,600.3282521935994" fill="none" stroke="#ccc"/><path d="M215,497.78449218809783C322.5,497.78449218809783,322.5,610.8093537618172,430,610.8093537618172" fill="none" stroke="#ccc"/><path d="M215,718.1060063753149C322.5,718.1060063753149,322.5,666.5303420834639,430,666.5303420834639" fill="none" stroke="#ccc"/><path d="M215,718.1060063753149C322.5,718.1060063753149,322.5,716.9409024153606,430,716.9409024153606" fill="none" stroke="#ccc"/><path d="M215,718.1060063753149C322.5,718.1060063753149,322.5,729.6471168571086,430,729.6471168571086" fill="none" stroke="#ccc"/><path d="M215,718.1060063753149C322.5,718.1060063753149,322.5,747.4743996467789,430,747.4743996467789" fill="none" stroke="#ccc"/><path d="M215,718.1060063753149C322.5,718.1060063753149,322.5,769.6816706671658,430,769.6816706671658" fill="none" stroke="#ccc"/><path d="M430,67.71650861862591C537.5,67.71650861862591,537.5,9.767501072400503,645,9.767501072400503" fill="none" stroke="#ccc"/><path d="M430,67.71650861862591C537.5,67.71650861862591,537.5,34.417683473874156,645,34.417683473874156" fill="none" stroke="#ccc"/><path d="M430,67.71650861862591C537.5,67.71650861862591,537.5,53.56866451535194,645,53.56866451535194" fill="none" stroke="#ccc"/><path d="M430,67.71650861862591C537.5,67.71650861862591,537.5,67.39353512363108,645,67.39353512363108" fill="none" stroke="#ccc"/><path d="M430,67.71650861862591C537.5,67.71650861862591,537.5,77.53724208574943,645,77.53724208574943" fill="none" stroke="#ccc"/><path d="M430,67.71650861862591C537.5,67.71650861862591,537.5,87.55500701465832,645,87.55500701465832" fill="none" stroke="#ccc"/><path d="M430,67.71650861862591C537.5,67.71650861862591,537.5,97.35823212857629,645,97.35823212857629" fill="none" stroke="#ccc"/><path d="M430,67.71650861862591C537.5,67.71650861862591,537.5,106.90955278609309,645,106.90955278609309" fill="none" stroke="#ccc"/><path d="M430,67.71650861862591C537.5,67.71650861862591,537.5,116.31599395962182,645,116.31599395962182" fill="none" stroke="#ccc"/><path d="M430,67.71650861862591C537.5,67.71650861862591,537.5,125.66551616485125,645,125.66551616485125" fill="none" stroke="#ccc"/><path d="M430,140.08137293123903C537.5,140.08137293123903,537.5,140.08137293123903,645,140.08137293123903" fill="none" stroke="#ccc"/><path d="M430,174.8623119028041C537.5,174.8623119028041,537.5,157.57659977054692,645,157.57659977054692" fill="none" stroke="#ccc"/><path d="M430,174.8623119028041C537.5,174.8623119028041,537.5,170.8840739578052,645,170.8840739578052" fill="none" stroke="#ccc"/><path d="M430,174.8623119028041C537.5,174.8623119028041,537.5,181.87612293364194,645,181.87612293364194" fill="none" stroke="#ccc"/><path d="M430,174.8623119028041C537.5,174.8623119028041,537.5,192.1480240350613,645,192.1480240350613" fill="none" stroke="#ccc"/><path d="M430,204.54249245634654C537.5,204.54249245634654,537.5,204.54249245634654,645,204.54249245634654" fill="none" stroke="#ccc"/><path d="M430,237.35219391856597C537.5,237.35219391856597,537.5,217.9666846200911,645,217.9666846200911" fill="none" stroke="#ccc"/><path d="M430,237.35219391856597C537.5,237.35219391856597,537.5,228.57847789451688,645,228.57847789451688" fill="none" stroke="#ccc"/><path d="M430,237.35219391856597C537.5,237.35219391856597,537.5,238.02103334501064,645,238.02103334501064" fill="none" stroke="#ccc"/><path d="M430,237.35219391856597C537.5,237.35219391856597,537.5,247.4094791858513,645,247.4094791858513" fill="none" stroke="#ccc"/><path d="M430,237.35219391856597C537.5,237.35219391856597,537.5,256.73770321704086,645,256.73770321704086" fill="none" stroke="#ccc"/><path d="M430,272.71279202506986C537.5,272.71279202506986,537.5,267.34006809266816,645,267.34006809266816" fill="none" stroke="#ccc"/><path d="M430,272.71279202506986C537.5,272.71279202506986,537.5,278.08551595747167,645,278.08551595747167" fill="none" stroke="#ccc"/><path d="M430,308.21376568909443C537.5,308.21376568909443,537.5,288.13977300309307,645,288.13977300309307" fill="none" stroke="#ccc"/><path d="M430,308.21376568909443C537.5,308.21376568909443,537.5,298.67519894122637,645,298.67519894122637" fill="none" stroke="#ccc"/><path d="M430,308.21376568909443C537.5,308.21376568909443,537.5,309.0512754410711,645,309.0512754410711" fill="none" stroke="#ccc"/><path d="M430,308.21376568909443C537.5,308.21376568909443,537.5,318.881317201567,645,318.881317201567" fill="none" stroke="#ccc"/><path d="M430,308.21376568909443C537.5,308.21376568909443,537.5,328.28775837509573,645,328.28775837509573" fill="none" stroke="#ccc"/><path d="M430,343.05785497983777C537.5,343.05785497983777,537.5,338.1482567304013,645,338.1482567304013" fill="none" stroke="#ccc"/><path d="M430,343.05785497983777C537.5,343.05785497983777,537.5,347.9674532292743,645,347.9674532292743" fill="none" stroke="#ccc"/><path d="M430,357.23149326679436C537.5,357.23149326679436,537.5,357.23149326679436,645,357.23149326679436" fill="none" stroke="#ccc"/><path d="M430,384.75963061437847C537.5,384.75963061437847,537.5,375.2960207120586,645,375.2960207120586" fill="none" stroke="#ccc"/><path d="M430,384.75963061437847C537.5,384.75963061437847,537.5,394.22324051669835,645,394.22324051669835" fill="none" stroke="#ccc"/><path d="M430,448.64460591886314C537.5,448.64460591886314,537.5,408.1635839143845,645,408.1635839143845" fill="none" stroke="#ccc"/><path d="M430,448.64460591886314C537.5,448.64460591886314,537.5,424.6719267661247,645,424.6719267661247" fill="none" stroke="#ccc"/><path d="M430,448.64460591886314C537.5,448.64460591886314,537.5,440.5364046635546,645,440.5364046635546" fill="none" stroke="#ccc"/><path d="M430,448.64460591886314C537.5,448.64460591886314,537.5,455.62489277670414,645,455.62489277670414" fill="none" stroke="#ccc"/><path d="M430,448.64460591886314C537.5,448.64460591886314,537.5,468.62449693964976,645,468.62449693964976" fill="none" stroke="#ccc"/><path d="M430,448.64460591886314C537.5,448.64460591886314,537.5,479.32240280942375,645,479.32240280942375" fill="none" stroke="#ccc"/><path d="M430,448.64460591886314C537.5,448.64460591886314,537.5,489.1256279233417,645,489.1256279233417" fill="none" stroke="#ccc"/><path d="M430,525.8570975025395C537.5,525.8570975025395,537.5,501.68941683416296,645,501.68941683416296" fill="none" stroke="#ccc"/><path d="M430,525.8570975025395C537.5,525.8570975025395,537.5,516.9258584428292,645,516.9258584428292" fill="none" stroke="#ccc"/><path d="M430,525.8570975025395C537.5,525.8570975025395,537.5,529.9114248779899,645,529.9114248779899" fill="none" stroke="#ccc"/><path d="M430,525.8570975025395C537.5,525.8570975025395,537.5,540.3994477041408,645,540.3994477041408" fill="none" stroke="#ccc"/><path d="M430,525.8570975025395C537.5,525.8570975025395,537.5,550.0247781709162,645,550.0247781709162" fill="none" stroke="#ccc"/><path d="M430,575.050597405037C537.5,575.050597405037,537.5,560.0925478128319,645,560.0925478128319" fill="none" stroke="#ccc"/><path d="M430,575.050597405037C537.5,575.050597405037,537.5,570.4916677507058,645,570.4916677507058" fill="none" stroke="#ccc"/><path d="M430,575.050597405037C537.5,575.050597405037,537.5,580.3254455225929,645,580.3254455225929" fill="none" stroke="#ccc"/><path d="M430,575.050597405037C537.5,575.050597405037,537.5,590.0086469972422,645,590.0086469972422" fill="none" stroke="#ccc"/><path d="M430,600.3282521935994C537.5,600.3282521935994,537.5,600.3282521935994,645,600.3282521935994" fill="none" stroke="#ccc"/><path d="M430,610.8093537618172C537.5,610.8093537618172,537.5,610.8093537618172,645,610.8093537618172" fill="none" stroke="#ccc"/><path d="M430,666.5303420834639C537.5,666.5303420834639,537.5,627.2029215727633,645,627.2029215727633" fill="none" stroke="#ccc"/><path d="M430,666.5303420834639C537.5,666.5303420834639,537.5,645.2651897533632,645,645.2651897533632" fill="none" stroke="#ccc"/><path d="M430,666.5303420834639C537.5,666.5303420834639,537.5,657.659662479816,645,657.659662479816" fill="none" stroke="#ccc"/><path d="M430,666.5303420834639C537.5,666.5303420834639,537.5,668.2091295924473,645,668.2091295924473" fill="none" stroke="#ccc"/><path d="M430,666.5303420834639C537.5,666.5303420834639,537.5,677.7669064512833,645,677.7669064512833" fill="none" stroke="#ccc"/><path d="M430,666.5303420834639C537.5,666.5303420834639,537.5,687.2229021773754,645,687.2229021773754" fill="none" stroke="#ccc"/><path d="M430,666.5303420834639C537.5,666.5303420834639,537.5,696.5724243826048,645,696.5724243826048" fill="none" stroke="#ccc"/><path d="M430,666.5303420834639C537.5,666.5303420834639,537.5,705.8577625941647,645,705.8577625941647" fill="none" stroke="#ccc"/><path d="M430,716.9409024153606C537.5,716.9409024153606,537.5,716.9409024153606,645,716.9409024153606" fill="none" stroke="#ccc"/><path d="M430,729.6471168571086C537.5,729.6471168571086,537.5,729.6471168571086,645,729.6471168571086" fill="none" stroke="#ccc"/><path d="M430,747.4743996467789C537.5,747.4743996467789,537.5,741.8621820582994,645,741.8621820582994" fill="none" stroke="#ccc"/><path d="M430,747.4743996467789C537.5,747.4743996467789,537.5,753.0866172352581,645,753.0866172352581" fill="none" stroke="#ccc"/><path d="M430,769.6816706671658C537.5,769.6816706671658,537.5,764.1308424067323,645,764.1308424067323" fill="none" stroke="#ccc"/><path d="M430,769.6816706671658C537.5,769.6816706671658,537.5,775.2324989275995,645,775.2324989275995" fill="none" stroke="#ccc"/></g><g id="nodes"><g transform="translate(0,465.29000365901254)"><circle fill="#ccc" r="21.65623133886967"/><text text-anchor="end" dominant-baseline="text-before-edge" transform="translate(0,0)"><tspan x="-23.65623133886967" y="0" dy="0" style="font-family: Arial, sans-serif; font-size: 10px; fill: black; font-weight: normal;"/></text></g><g id="celu" transform="translate(215,212.4740009427101)"><circle fill="#ccc" r="14.99038376031266"/><text text-anchor="end" dominant-baseline="text-before-edge" transform="translate(0,-5.5)"><tspan x="-16.99038376031266" y="0" dy="0" style="font-family: Arial, sans-serif; font-size: 10px; fill: black; font-weight: normal;">celu</tspan></text></g><g id="mac" transform="translate(215,497.78449218809783)"><circle fill="#ccc" r="13.019470104685915"/><text text-anchor="end" dominant-baseline="text-before-edge" transform="translate(0,-5.5)"><tspan x="-15.019470104685915" y="0" dy="0" style="font-family: Arial, sans-serif; font-size: 10px; fill: black; font-weight: normal;">mac</tspan></text></g><g id="ipad" transform="translate(215,718.1060063753149)"><circle fill="#ccc" r="8.647204676332406"/><text text-anchor="end" dominant-baseline="text-before-edge" transform="translate(0,-5.5)"><tspan x="-10.647204676332406" y="0" dy="0" style="font-family: Arial, sans-serif; font-size: 10px; fill: black; font-weight: normal;">ipad</tspan></text></g><g id="Social" transform="translate(430,67.71650861862591)"><circle fill="#17becf" r="12.641416868011861"/><text text-anchor="end" dominant-baseline="text-before-edge" transform="translate(0,-5.5)"><tspan x="-14.641416868011861" y="0" dy="0" style="font-family: Arial, sans-serif; font-size: 10px; fill: black; font-weight: normal;">Social</tspan></text></g><g id="Games" transform="translate(430,140.08137293123903)"><circle fill="#ff7f0e" r="5.47659115962415"/><text text-anchor="end" dominant-baseline="text-before-edge" transform="translate(0,-5.5)"><tspan x="-7.47659115962415" y="0" dy="0" style="font-family: Arial, sans-serif; font-size: 10px; fill: black; font-weight: normal;">Games</tspan></text></g><g id="Location &amp; Travel" transform="translate(430,174.8623119028041)"><circle fill="#d62728" r="3.861752726537175"/><text text-anchor="end" dominant-baseline="text-before-edge" transform="translate(0,-5.5)"><tspan x="-5.8617527265371745" y="0" dy="0" style="font-family: Arial, sans-serif; font-size: 10px; fill: black; font-weight: normal;">Location &amp; Travel</tspan></text></g><g id="Search" transform="translate(430,204.54249245634654)"><circle fill="#7f7f7f" r="3.252197631926619"/><text text-anchor="end" dominant-baseline="text-before-edge" transform="translate(0,-5.5)"><tspan x="-5.252197631926618" y="0" dy="0" style="font-family: Arial, sans-serif; font-size: 10px; fill: black; font-weight: normal;">Search</tspan></text></g><g id="Miscelaneous" transform="translate(430,237.35219391856597)"><circle fill="#9467bd" r="1.716534479259027"/><text text-anchor="end" dominant-baseline="text-before-edge" transform="translate(0,-5.5)"><tspan x="-3.716534479259027" y="0" dy="0" style="font-family: Arial, sans-serif; font-size: 10px; fill: black; font-weight: normal;">Miscelaneous</tspan></text></g><g id="Photo &amp; Video" transform="translate(430,272.71279202506986)"><circle fill="#8c564b" r="1.7043459145740825"/><text text-anchor="end" dominant-baseline="text-before-edge" transform="translate(0,-5.5)"><tspan x="-3.7043459145740822" y="0" dy="0" style="font-family: Arial, sans-serif; font-size: 10px; fill: black; font-weight: normal;">Photo &amp; Video</tspan></text></g><g id="Shopping &amp; Food" transform="translate(430,308.21376568909443)"><circle fill="#bcbd22" r="1.6335604688594882"/><text text-anchor="end" dominant-baseline="text-before-edge" transform="translate(0,-5.55224609375)"><tspan x="-3.6335604688594882" y="0" dy="0" style="font-family: Arial, sans-serif; font-size: 10px; fill: black; font-weight: normal;">Shopping &amp; Food</tspan></text></g><g id="Education" transform="translate(430,343.05785497983777)"><circle fill="#1f77b4" r="0.9055461879664963"/><text text-anchor="end" dominant-baseline="text-before-edge" transform="translate(0,-5.5)"><tspan x="-2.9055461879664963" y="0" dy="0" style="font-family: Arial, sans-serif; font-size: 10px; fill: black; font-weight: normal;">Education</tspan></text></g><g id="Health" transform="translate(430,357.23149326679436)"><circle fill="#2ca02c" r="0.288775421252205"/><text text-anchor="end" dominant-baseline="text-before-edge" transform="translate(0,-5.5)"><tspan x="-2.288775421252205" y="0" dy="0" style="font-family: Arial, sans-serif; font-size: 10px; fill: black; font-weight: normal;">Health</tspan></text></g><g id="Search" transform="translate(430,384.75963061437847)"><circle fill="#7f7f7f" r="9.28357962160545"/><text text-anchor="end" dominant-baseline="text-before-edge" transform="translate(0,-5.5)"><tspan x="-11.28357962160545" y="0" dy="0" style="font-family: Arial, sans-serif; font-size: 10px; fill: black; font-weight: normal;">Search</tspan></text></g><g id="Programming" transform="translate(430,448.64460591886314)"><circle fill="#e377c2" r="7.4393540634363875"/><text text-anchor="end" dominant-baseline="text-before-edge" transform="translate(0,-5.55224609375)"><tspan x="-9.439354063436387" y="0" dy="0" style="font-family: Arial, sans-serif; font-size: 10px; fill: black; font-weight: normal;">Programming</tspan></text></g><g id="Education" transform="translate(430,525.8570975025395)"><circle fill="#1f77b4" r="4.8950060353559275"/><text text-anchor="end" dominant-baseline="text-before-edge" transform="translate(0,-5.5)"><tspan x="-6.8950060353559275" y="0" dy="0" style="font-family: Arial, sans-serif; font-size: 10px; fill: black; font-weight: normal;">Education</tspan></text></g><g id="Miscelaneous" transform="translate(430,575.050597405037)"><circle fill="#9467bd" r="1.4771834288798842"/><text text-anchor="end" dominant-baseline="text-before-edge" transform="translate(0,-5.5)"><tspan x="-3.477183428879884" y="0" dy="0" style="font-family: Arial, sans-serif; font-size: 10px; fill: black; font-weight: normal;">Miscelaneous</tspan></text></g><g id="Photo &amp; Video" transform="translate(430,600.3282521935994)"><circle fill="#8c564b" r="1.1964738556620598"/><text text-anchor="end" dominant-baseline="text-before-edge" transform="translate(0,-5.5)"><tspan x="-3.1964738556620595" y="0" dy="0" style="font-family: Arial, sans-serif; font-size: 10px; fill: black; font-weight: normal;">Photo &amp; Video</tspan></text></g><g id="Social" transform="translate(430,610.8093537618172)"><circle fill="#17becf" r="0.6348682374664139"/><text text-anchor="end" dominant-baseline="text-before-edge" transform="translate(0,-5.5)"><tspan x="-2.6348682374664136" y="0" dy="0" style="font-family: Arial, sans-serif; font-size: 10px; fill: black; font-weight: normal;">Social</tspan></text></g><g id="Education" transform="translate(430,666.5303420834639)"><circle fill="#1f77b4" r="7.7253047554757135"/><text text-anchor="end" dominant-baseline="text-before-edge" transform="translate(0,-5.5)"><tspan x="-9.725304755475713" y="0" dy="0" style="font-family: Arial, sans-serif; font-size: 10px; fill: black; font-weight: normal;">Education</tspan></text></g><g id="Search" transform="translate(430,716.9409024153606)"><circle fill="#7f7f7f" r="2.1513284355314184"/><text text-anchor="end" dominant-baseline="text-before-edge" transform="translate(0,-5.5)"><tspan x="-4.151328435531418" y="0" dy="0" style="font-family: Arial, sans-serif; font-size: 10px; fill: black; font-weight: normal;">Search</tspan></text></g><g id="Games" transform="translate(430,729.6471168571086)"><circle fill="#ff7f0e" r="1.9299763975411768"/><text text-anchor="end" dominant-baseline="text-before-edge" transform="translate(0,-5.5)"><tspan x="-3.929976397541177" y="0" dy="0" style="font-family: Arial, sans-serif; font-size: 10px; fill: black; font-weight: normal;">Games</tspan></text></g><g id="Social" transform="translate(430,747.4743996467789)"><circle fill="#17becf" r="1.8972933429459282"/><text text-anchor="end" dominant-baseline="text-before-edge" transform="translate(0,-5.5)"><tspan x="-3.897293342945928" y="0" dy="0" style="font-family: Arial, sans-serif; font-size: 10px; fill: black; font-weight: normal;">Social</tspan></text></g><g id="Miscelaneous" transform="translate(430,769.6816706671658)"><circle fill="#9467bd" r="1.7723064598512017"/><text text-anchor="end" dominant-baseline="text-before-edge" transform="translate(0,-5.5)"><tspan x="-3.772306459851202" y="0" dy="0" style="font-family: Arial, sans-serif; font-size: 10px; fill: black; font-weight: normal;">Miscelaneous</tspan></text></g><g id="Instagram" transform="translate(645,9.767501072400503)"><circle fill="#17becf" r="10"/><text text-anchor="start" dominant-baseline="text-before-edge" transform="translate(0,-5.55224609375)"><tspan x="12" y="0" dy="0" style="font-family: Arial, sans-serif; font-size: 10px; fill: black; font-weight: bold;">Instagram</tspan></text></g><g id="WhatsApp" transform="translate(645,34.417683473874156)"><circle fill="#17becf" r="6.158661984771411"/><text text-anchor="start" dominant-baseline="text-before-edge" transform="translate(0,-5.5)"><tspan x="8.15866198477141" y="0" dy="0" style="font-family: Arial, sans-serif; font-size: 10px; fill: black; font-weight: bold;">WhatsApp</tspan></text></g><g id="Tiktok" transform="translate(645,53.56866451535194)"><circle fill="#17becf" r="4.439384039062418"/><text text-anchor="start" dominant-baseline="text-before-edge" transform="translate(0,-5.5)"><tspan x="6.439384039062418" y="0" dy="0" style="font-family: Arial, sans-serif; font-size: 10px; fill: black; font-weight: bold;">Tiktok</tspan></text></g><g id="Pinterest" transform="translate(645,67.39353512363108)"><circle fill="#17becf" r="0.773070014997963"/><text text-anchor="start" dominant-baseline="text-before-edge" transform="translate(0,-5.5)"><tspan x="2.773070014997963" y="0" dy="0" style="font-family: Arial, sans-serif; font-size: 10px; fill: black; font-weight: bold;">Pinterest</tspan></text></g><g id="Spotify" transform="translate(645,77.53724208574943)"><circle fill="#17becf" r="0.7171094785104727"/><text text-anchor="start" dominant-baseline="text-before-edge" transform="translate(0,-5.55224609375)"><tspan x="2.717109478510473" y="0" dy="0" style="font-family: Arial, sans-serif; font-size: 10px; fill: black; font-weight: bold;">Spotify</tspan></text></g><g id="YouTube" transform="translate(645,87.55500701465832)"><circle fill="#17becf" r="0.6457214721510679"/><text text-anchor="start" dominant-baseline="text-before-edge" transform="translate(0,-5.5)"><tspan x="2.645721472151068" y="0" dy="0" style="font-family: Arial, sans-serif; font-size: 10px; fill: black; font-weight: bold;">YouTube</tspan></text></g><g id="LinkedIn" transform="translate(645,97.35823212857629)"><circle fill="#17becf" r="0.5001737015859244"/><text text-anchor="start" dominant-baseline="text-before-edge" transform="translate(0,-5.5)"><tspan x="2.5001737015859247" y="0" dy="0" style="font-family: Arial, sans-serif; font-size: 10px; fill: black; font-weight: bold;">LinkedIn</tspan></text></g><g id="Mail" transform="translate(645,106.90955278609309)"><circle fill="#17becf" r="0.3910037687613069"/><text text-anchor="start" dominant-baseline="text-before-edge" transform="translate(0,-5.5)"><tspan x="2.391003768761307" y="0" dy="0" style="font-family: Arial, sans-serif; font-size: 10px; fill: black; font-weight: bold;">Mail</tspan></text></g><g id="Movistar" transform="translate(645,116.31599395962182)"><circle fill="#17becf" r="0.3536762161625838"/><text text-anchor="start" dominant-baseline="text-before-edge" transform="translate(0,-5.5)"><tspan x="2.353676216162584" y="0" dy="0" style="font-family: Arial, sans-serif; font-size: 10px; fill: black; font-weight: bold;">Movistar</tspan></text></g><g id="X" transform="translate(645,125.66551616485125)"><circle fill="#17becf" r="0.3334491343906163"/><text text-anchor="start" dominant-baseline="text-before-edge" transform="translate(0,-5.5)"><tspan x="2.3334491343906163" y="0" dy="0" style="font-family: Arial, sans-serif; font-size: 10px; fill: black; font-weight: bold;">X</tspan></text></g><g id="Juego" transform="translate(645,140.08137293123903)"><circle fill="#ff7f0e" r="5.47659115962415"/><text text-anchor="start" dominant-baseline="text-before-edge" transform="translate(0,-5.55224609375)"><tspan x="7.47659115962415" y="0" dy="0" style="font-family: Arial, sans-serif; font-size: 10px; fill: black; font-weight: bold;">Juego</tspan></text></g><g id="Waze" transform="translate(645,157.57659977054692)"><circle fill="#d62728" r="3.4472093435869047"/><text text-anchor="start" dominant-baseline="text-before-edge" transform="translate(0,-5.5)"><tspan x="5.447209343586905" y="0" dy="0" style="font-family: Arial, sans-serif; font-size: 10px; fill: black; font-weight: bold;">Waze</tspan></text></g><g id="Maps" transform="translate(645,170.8840739578052)"><circle fill="#d62728" r="1.2420700513693608"/><text text-anchor="start" dominant-baseline="text-before-edge" transform="translate(0,-5.5)"><tspan x="3.2420700513693608" y="0" dy="0" style="font-family: Arial, sans-serif; font-size: 10px; fill: black; font-weight: bold;">Maps</tspan></text></g><g id="Cabify" transform="translate(645,181.87612293364194)"><circle fill="#d62728" r="1.1059256654424674"/><text text-anchor="start" dominant-baseline="text-before-edge" transform="translate(0,-5.55224609375)"><tspan x="3.1059256654424674" y="0" dy="0" style="font-family: Arial, sans-serif; font-size: 10px; fill: black; font-weight: bold;">Cabify</tspan></text></g><g id="FindMy" transform="translate(645,192.1480240350613)"><circle fill="#d62728" r="0.5138796283288498"/><text text-anchor="start" dominant-baseline="text-before-edge" transform="translate(0,-5.55224609375)"><tspan x="2.5138796283288496" y="0" dy="0" style="font-family: Arial, sans-serif; font-size: 10px; fill: black; font-weight: bold;">FindMy</tspan></text></g><g id="Safari" transform="translate(645,204.54249245634654)"><circle fill="#7f7f7f" r="3.252197631926619"/><text text-anchor="start" dominant-baseline="text-before-edge" transform="translate(0,-5.5)"><tspan x="5.252197631926618" y="0" dy="0" style="font-family: Arial, sans-serif; font-size: 10px; fill: black; font-weight: bold;">Safari</tspan></text></g><g id="Settings" transform="translate(645,217.9666846200911)"><circle fill="#9467bd" r="1.555103235692816"/><text text-anchor="start" dominant-baseline="text-before-edge" transform="translate(0,-5.55224609375)"><tspan x="3.5551032356928163" y="0" dy="0" style="font-family: Arial, sans-serif; font-size: 10px; fill: black; font-weight: bold;">Settings</tspan></text></g><g id="SportClub" transform="translate(645,228.57847789451688)"><circle fill="#9467bd" r="0.40839011721487206"/><text text-anchor="start" dominant-baseline="text-before-edge" transform="translate(0,-5.5)"><tspan x="2.4083901172148723" y="0" dy="0" style="font-family: Arial, sans-serif; font-size: 10px; fill: black; font-weight: bold;">SportClub</tspan></text></g><g id="Calculator" transform="translate(645,238.02103334501064)"><circle fill="#9467bd" r="0.37280746576794055"/><text text-anchor="start" dominant-baseline="text-before-edge" transform="translate(0,-5.5)"><tspan x="2.3728074657679405" y="0" dy="0" style="font-family: Arial, sans-serif; font-size: 10px; fill: black; font-weight: bold;">Calculator</tspan></text></g><g id="Preview" transform="translate(645,247.4094791858513)"><circle fill="#9467bd" r="0.3536762161625838"/><text text-anchor="start" dominant-baseline="text-before-edge" transform="translate(0,-5.5)"><tspan x="2.353676216162584" y="0" dy="0" style="font-family: Arial, sans-serif; font-size: 10px; fill: black; font-weight: bold;">Preview</tspan></text></g><g id="Clock" transform="translate(645,256.73770321704086)"><circle fill="#9467bd" r="0.3119131042015066"/><text text-anchor="start" dominant-baseline="text-before-edge" transform="translate(0,-5.5)"><tspan x="2.3119131042015066" y="0" dy="0" style="font-family: Arial, sans-serif; font-size: 10px; fill: black; font-weight: bold;">Clock</tspan></text></g><g id="Photos" transform="translate(645,267.34006809266816)"><circle fill="#8c564b" r="1.6420465543725895"/><text text-anchor="start" dominant-baseline="text-before-edge" transform="translate(0,-5.5)"><tspan x="3.6420465543725893" y="0" dy="0" style="font-family: Arial, sans-serif; font-size: 10px; fill: black; font-weight: bold;">Photos</tspan></text></g><g id="Camera" transform="translate(645,278.08551595747167)"><circle fill="#8c564b" r="0.4565940317157805"/><text text-anchor="start" dominant-baseline="text-before-edge" transform="translate(0,-5.5)"><tspan x="2.4565940317157806" y="0" dy="0" style="font-family: Arial, sans-serif; font-size: 10px; fill: black; font-weight: bold;">Camera</tspan></text></g><g id="Amazon" transform="translate(645,288.13977300309307)"><circle fill="#bcbd22" r="0.9431365764335569"/><text text-anchor="start" dominant-baseline="text-before-edge" transform="translate(0,-5.5)"><tspan x="2.943136576433557" y="0" dy="0" style="font-family: Arial, sans-serif; font-size: 10px; fill: black; font-weight: bold;">Amazon</tspan></text></g><g id="Rappi" transform="translate(645,298.67519894122637)"><circle fill="#bcbd22" r="0.9431365764335569"/><text text-anchor="start" dominant-baseline="text-before-edge" transform="translate(0,-5.5)"><tspan x="2.943136576433557" y="0" dy="0" style="font-family: Arial, sans-serif; font-size: 10px; fill: black; font-weight: bold;">Rappi</tspan></text></g><g id="Mercado Libre" transform="translate(645,309.0512754410711)"><circle fill="#bcbd22" r="0.7820075375226138"/><text text-anchor="start" dominant-baseline="text-before-edge" transform="translate(0,-5.5)"><tspan x="2.7820075375226136" y="0" dy="0" style="font-family: Arial, sans-serif; font-size: 10px; fill: black; font-weight: bold;">Mercado Libre</tspan></text></g><g id="Shein" transform="translate(645,318.881317201567)"><circle fill="#bcbd22" r="0.3910037687613069"/><text text-anchor="start" dominant-baseline="text-before-edge" transform="translate(0,-5.5)"><tspan x="2.391003768761307" y="0" dy="0" style="font-family: Arial, sans-serif; font-size: 10px; fill: black; font-weight: bold;">Shein</tspan></text></g><g id="Mercado Pago" transform="translate(645,328.28775837509573)"><circle fill="#bcbd22" r="0.3536762161625838"/><text text-anchor="start" dominant-baseline="text-before-edge" transform="translate(0,-5.55224609375)"><tspan x="2.353676216162584" y="0" dy="0" style="font-family: Arial, sans-serif; font-size: 10px; fill: black; font-weight: bold;">Mercado Pago</tspan></text></g><g id="Preview" transform="translate(645,338.1482567304013)"><circle fill="#1f77b4" r="0.8501318215241878"/><text text-anchor="start" dominant-baseline="text-before-edge" transform="translate(0,-5.5)"><tspan x="2.8501318215241875" y="0" dy="0" style="font-family: Arial, sans-serif; font-size: 10px; fill: black; font-weight: bold;">Preview</tspan></text></g><g id="Docs" transform="translate(645,347.9674532292743)"><circle fill="#1f77b4" r="0.3119131042015066"/><text text-anchor="start" dominant-baseline="text-before-edge" transform="translate(0,-5.5)"><tspan x="2.3119131042015066" y="0" dy="0" style="font-family: Arial, sans-serif; font-size: 10px; fill: black; font-weight: bold;">Docs</tspan></text></g><g id="Health" transform="translate(645,357.23149326679436)"><circle fill="#2ca02c" r="0.288775421252205"/><text text-anchor="start" dominant-baseline="text-before-edge" transform="translate(0,-5.5)"><tspan x="2.288775421252205" y="0" dy="0" style="font-family: Arial, sans-serif; font-size: 10px; fill: black; font-weight: bold;">Health</tspan></text></g><g id="google" transform="translate(645,375.2960207120586)"><circle fill="#7f7f7f" r="9.210683587406775"/><text text-anchor="start" dominant-baseline="text-before-edge" transform="translate(0,-5.55224609375)"><tspan x="11.210683587406775" y="0" dy="0" style="font-family: Arial, sans-serif; font-size: 10px; fill: black; font-weight: bold;">google</tspan></text></g><g id="Safari" transform="translate(645,394.22324051669835)"><circle fill="#7f7f7f" r="1.161102253620863"/><text text-anchor="start" dominant-baseline="text-before-edge" transform="translate(0,-5.5)"><tspan x="3.161102253620863" y="0" dy="0" style="font-family: Arial, sans-serif; font-size: 10px; fill: black; font-weight: bold;">Safari</tspan></text></g><g id="IntelliJ" transform="translate(645,408.1635839143845)"><circle fill="#e377c2" r="4.168114179882704"/><text text-anchor="start" dominant-baseline="text-before-edge" transform="translate(0,-5.5)"><tspan x="6.168114179882704" y="0" dy="0" style="font-family: Arial, sans-serif; font-size: 10px; fill: black; font-weight: bold;">IntelliJ</tspan></text></g><g id="VSCode" transform="translate(645,424.6719267661247)"><circle fill="#e377c2" r="3.7577809015006602"/><text text-anchor="start" dominant-baseline="text-before-edge" transform="translate(0,-5.5)"><tspan x="5.75778090150066" y="0" dy="0" style="font-family: Arial, sans-serif; font-size: 10px; fill: black; font-weight: bold;">VSCode</tspan></text></g><g id="Antigravity" transform="translate(645,440.5364046635546)"><circle fill="#e377c2" r="3.517058597944589"/><text text-anchor="start" dominant-baseline="text-before-edge" transform="translate(0,-5.55224609375)"><tspan x="5.5170585979445885" y="0" dy="0" style="font-family: Arial, sans-serif; font-size: 10px; fill: black; font-weight: bold;">Antigravity</tspan></text></g><g id="VirtualBox" transform="translate(645,455.62489277670414)"><circle fill="#e377c2" r="2.97312493102042"/><text text-anchor="start" dominant-baseline="text-before-edge" transform="translate(0,-5.5)"><tspan x="4.97312493102042" y="0" dy="0" style="font-family: Arial, sans-serif; font-size: 10px; fill: black; font-weight: bold;">VirtualBox</tspan></text></g><g id="Terminal" transform="translate(645,468.62449693964976)"><circle fill="#e377c2" r="1.4048461740556721"/><text text-anchor="start" dominant-baseline="text-before-edge" transform="translate(0,-5.5)"><tspan x="3.404846174055672" y="0" dy="0" style="font-family: Arial, sans-serif; font-size: 10px; fill: black; font-weight: bold;">Terminal</tspan></text></g><g id="GitDesktop" transform="translate(645,479.32240280942375)"><circle fill="#e377c2" r="0.6457214721510679"/><text text-anchor="start" dominant-baseline="text-before-edge" transform="translate(0,-5.5)"><tspan x="2.645721472151068" y="0" dy="0" style="font-family: Arial, sans-serif; font-size: 10px; fill: black; font-weight: bold;">GitDesktop</tspan></text></g><g id="Cursor" transform="translate(645,489.1256279233417)"><circle fill="#e377c2" r="0.5001737015859244"/><text text-anchor="start" dominant-baseline="text-before-edge" transform="translate(0,-5.5)"><tspan x="2.5001737015859247" y="0" dy="0" style="font-family: Arial, sans-serif; font-size: 10px; fill: black; font-weight: bold;">Cursor</tspan></text></g><g id="OneNote" transform="translate(645,501.68941683416296)"><circle fill="#1f77b4" r="3.437115004658224"/><text text-anchor="start" dominant-baseline="text-before-edge" transform="translate(0,-5.5)"><tspan x="5.437115004658224" y="0" dy="0" style="font-family: Arial, sans-serif; font-size: 10px; fill: black; font-weight: bold;">OneNote</tspan></text></g><g id="Discord" transform="translate(645,516.9258584428292)"><circle fill="#1f77b4" r="3.202674351551338"/><text text-anchor="start" dominant-baseline="text-before-edge" transform="translate(0,-5.5)"><tspan x="5.202674351551337" y="0" dy="0" style="font-family: Arial, sans-serif; font-size: 10px; fill: black; font-weight: bold;">Discord</tspan></text></g><g id="Tableau" transform="translate(645,529.9114248779899)"><circle fill="#1f77b4" r="1.161102253620863"/><text text-anchor="start" dominant-baseline="text-before-edge" transform="translate(0,-5.5)"><tspan x="3.161102253620863" y="0" dy="0" style="font-family: Arial, sans-serif; font-size: 10px; fill: black; font-weight: bold;">Tableau</tspan></text></g><g id="Respondus" transform="translate(645,540.3994477041408)"><circle fill="#1f77b4" r="0.6772383934454962"/><text text-anchor="start" dominant-baseline="text-before-edge" transform="translate(0,-5.5)"><tspan x="2.677238393445496" y="0" dy="0" style="font-family: Arial, sans-serif; font-size: 10px; fill: black; font-weight: bold;">Respondus</tspan></text></g><g id="Preview" transform="translate(645,550.0247781709162)"><circle fill="#1f77b4" r="0.288775421252205"/><text text-anchor="start" dominant-baseline="text-before-edge" transform="translate(0,-5.5)"><tspan x="2.288775421252205" y="0" dy="0" style="font-family: Arial, sans-serif; font-size: 10px; fill: black; font-weight: bold;">Preview</tspan></text></g><g id="Finder" transform="translate(645,560.0925478128319)"><circle fill="#9467bd" r="1.124618690687674"/><text text-anchor="start" dominant-baseline="text-before-edge" transform="translate(0,-5.5)"><tspan x="3.124618690687674" y="0" dy="0" style="font-family: Arial, sans-serif; font-size: 10px; fill: black; font-weight: bold;">Finder</tspan></text></g><g id="Settings" transform="translate(645,570.4916677507058)"><circle fill="#9467bd" r="0.6238262084030132"/><text text-anchor="start" dominant-baseline="text-before-edge" transform="translate(0,-5.55224609375)"><tspan x="2.6238262084030133" y="0" dy="0" style="font-family: Arial, sans-serif; font-size: 10px; fill: black; font-weight: bold;">Settings</tspan></text></g><g id="Notas" transform="translate(645,580.3254455225929)"><circle fill="#9467bd" r="0.5529628327212337"/><text text-anchor="start" dominant-baseline="text-before-edge" transform="translate(0,-5.5)"><tspan x="2.5529628327212337" y="0" dy="0" style="font-family: Arial, sans-serif; font-size: 10px; fill: black; font-weight: bold;">Notas</tspan></text></g><g id="Preview" transform="translate(645,590.0086469972422)"><circle fill="#9467bd" r="0.47156828821677843"/><text text-anchor="start" dominant-baseline="text-before-edge" transform="translate(0,-5.5)"><tspan x="2.4715682882167784" y="0" dy="0" style="font-family: Arial, sans-serif; font-size: 10px; fill: black; font-weight: bold;">Preview</tspan></text></g><g id="QuickTime Player" transform="translate(645,600.3282521935994)"><circle fill="#8c564b" r="1.1964738556620598"/><text text-anchor="start" dominant-baseline="text-before-edge" transform="translate(0,-5.55224609375)"><tspan x="3.1964738556620595" y="0" dy="0" style="font-family: Arial, sans-serif; font-size: 10px; fill: black; font-weight: bold;">QuickTime Player</tspan></text></g><g id="WhatsApp" transform="translate(645,610.8093537618172)"><circle fill="#17becf" r="0.6348682374664139"/><text text-anchor="start" dominant-baseline="text-before-edge" transform="translate(0,-5.5)"><tspan x="2.6348682374664136" y="0" dy="0" style="font-family: Arial, sans-serif; font-size: 10px; fill: black; font-weight: bold;">WhatsApp</tspan></text></g><g id="OneNote" transform="translate(645,627.2029215727633)"><circle fill="#1f77b4" r="7.174970005482194"/><text text-anchor="start" dominant-baseline="text-before-edge" transform="translate(0,-5.5)"><tspan x="9.174970005482194" y="0" dy="0" style="font-family: Arial, sans-serif; font-size: 10px; fill: black; font-weight: bold;">OneNote</tspan></text></g><g id="Books" transform="translate(645,645.2651897533632)"><circle fill="#1f77b4" r="2.322204507241726"/><text text-anchor="start" dominant-baseline="text-before-edge" transform="translate(0,-5.5)"><tspan x="4.322204507241726" y="0" dy="0" style="font-family: Arial, sans-serif; font-size: 10px; fill: black; font-weight: bold;">Books</tspan></text></g><g id="Drive" transform="translate(645,657.659662479816)"><circle fill="#1f77b4" r="1.443877106261025"/><text text-anchor="start" dominant-baseline="text-before-edge" transform="translate(0,-5.5)"><tspan x="3.443877106261025" y="0" dy="0" style="font-family: Arial, sans-serif; font-size: 10px; fill: black; font-weight: bold;">Drive</tspan></text></g><g id="Word" transform="translate(645,668.2091295924473)"><circle fill="#1f77b4" r="0.4565940317157805"/><text text-anchor="start" dominant-baseline="text-before-edge" transform="translate(0,-5.5)"><tspan x="2.4565940317157806" y="0" dy="0" style="font-family: Arial, sans-serif; font-size: 10px; fill: black; font-weight: bold;">Word</tspan></text></g><g id="Sheets" transform="translate(645,677.7669064512833)"><circle fill="#1f77b4" r="0.441111742243663"/><text text-anchor="start" dominant-baseline="text-before-edge" transform="translate(0,-5.5)"><tspan x="2.4411117422436632" y="0" dy="0" style="font-family: Arial, sans-serif; font-size: 10px; fill: black; font-weight: bold;">Sheets</tspan></text></g><g id="RawGraphs" transform="translate(645,687.2229021773754)"><circle fill="#1f77b4" r="0.3536762161625838"/><text text-anchor="start" dominant-baseline="text-before-edge" transform="translate(0,-5.5)"><tspan x="2.353676216162584" y="0" dy="0" style="font-family: Arial, sans-serif; font-size: 10px; fill: black; font-weight: bold;">RawGraphs</tspan></text></g><g id="Campus" transform="translate(645,696.5724243826048)"><circle fill="#1f77b4" r="0.3334491343906163"/><text text-anchor="start" dominant-baseline="text-before-edge" transform="translate(0,-5.5)"><tspan x="2.3334491343906163" y="0" dy="0" style="font-family: Arial, sans-serif; font-size: 10px; fill: black; font-weight: bold;">Campus</tspan></text></g><g id="Goodnotes" transform="translate(645,705.8577625941647)"><circle fill="#1f77b4" r="0.288775421252205"/><text text-anchor="start" dominant-baseline="text-before-edge" transform="translate(0,-5.5)"><tspan x="2.288775421252205" y="0" dy="0" style="font-family: Arial, sans-serif; font-size: 10px; fill: black; font-weight: bold;">Goodnotes</tspan></text></g><g id="Safari" transform="translate(645,716.9409024153606)"><circle fill="#7f7f7f" r="2.1513284355314184"/><text text-anchor="start" dominant-baseline="text-before-edge" transform="translate(0,-5.5)"><tspan x="4.151328435531418" y="0" dy="0" style="font-family: Arial, sans-serif; font-size: 10px; fill: black; font-weight: bold;">Safari</tspan></text></g><g id="Juego" transform="translate(645,729.6471168571086)"><circle fill="#ff7f0e" r="1.9299763975411768"/><text text-anchor="start" dominant-baseline="text-before-edge" transform="translate(0,-5.55224609375)"><tspan x="3.929976397541177" y="0" dy="0" style="font-family: Arial, sans-serif; font-size: 10px; fill: black; font-weight: bold;">Juego</tspan></text></g><g id="Netflix" transform="translate(645,741.8621820582994)"><circle fill="#17becf" r="1.6546940831122192"/><text text-anchor="start" dominant-baseline="text-before-edge" transform="translate(0,-5.5)"><tspan x="3.6546940831122194" y="0" dy="0" style="font-family: Arial, sans-serif; font-size: 10px; fill: black; font-weight: bold;">Netflix</tspan></text></g><g id="WhatsApp" transform="translate(645,753.0866172352581)"><circle fill="#17becf" r="0.9282831036382961"/><text text-anchor="start" dominant-baseline="text-before-edge" transform="translate(0,-5.5)"><tspan x="2.928283103638296" y="0" dy="0" style="font-family: Arial, sans-serif; font-size: 10px; fill: black; font-weight: bold;">WhatsApp</tspan></text></g><g id="Settings" transform="translate(645,764.1308424067323)"><circle fill="#9467bd" r="1.4724715080109703"/><text text-anchor="start" dominant-baseline="text-before-edge" transform="translate(0,-5.55224609375)"><tspan x="3.4724715080109703" y="0" dy="0" style="font-family: Arial, sans-serif; font-size: 10px; fill: black; font-weight: bold;">Settings</tspan></text></g><g id="Files" transform="translate(645,775.2324989275995)"><circle fill="#9467bd" r="0.986355841330196"/><text text-anchor="start" dominant-baseline="text-before-edge" transform="translate(0,-5.5)"><tspan x="2.9863558413301963" y="0" dy="0" style="font-family: Arial, sans-serif; font-size: 10px; fill: black; font-weight: bold;">Files</tspan></text></g></g></g></svg>