<svg xmlns="http://www.w3.org/2000/svg" width="1005" height="1000"><rect width="1005" height="1000" x="0" y="0" fill="#FFFFFF" id="background"/><g transform="translate(10,10)" id="viz"><g id="links"><path d="M0,573.9133761981029C107.5,573.9133761981029,107.5,268.21084677844584,215,268.21084677844584" fill="none" stroke="#ccc"/><path d="M0,573.9133761981029C107.5,573.9133761981029,107.5,610.7129479071092,215,610.7129479071092" fill="none" stroke="#ccc"/><path d="M0,573.9133761981029C107.5,573.9133761981029,107.5,879.6159056177602,215,879.6159056177602" fill="none" stroke="#ccc"/><path d="M215,268.21084677844584C322.5,268.21084677844584,322.5,88.22584896014254,430,88.22584896014254" fill="none" stroke="#ccc"/><path d="M215,268.21084677844584C322.5,268.21084677844584,322.5,183.71586807185255,430,183.71586807185255" fill="none" stroke="#ccc"/><path d="M215,268.21084677844584C322.5,268.21084677844584,322.5,229.85971358646725,430,229.85971358646725" fill="none" stroke="#ccc"/><path d="M215,268.21084677844584C322.5,268.21084677844584,322.5,268.5886208081193,430,268.5886208081193" fill="none" stroke="#ccc"/><path d="M215,268.21084677844584C322.5,268.21084677844584,322.5,298.8328956690015,430,298.8328956690015" fill="none" stroke="#ccc"/><path d="M215,268.21084677844584C322.5,268.21084677844584,322.5,347.0005814623096,430,347.0005814623096" fill="none" stroke="#ccc"/><path d="M215,268.21084677844584C322.5,268.21084677844584,322.5,387.73057498510275,430,387.73057498510275" fill="none" stroke="#ccc"/><path d="M215,268.21084677844584C322.5,268.21084677844584,322.5,415.0424259487879,430,415.0424259487879" fill="none" stroke="#ccc"/><path d="M215,268.21084677844584C322.5,268.21084677844584,322.5,435.01692862697905,430,435.01692862697905" fill="none" stroke="#ccc"/><path d="M215,268.21084677844584C322.5,268.21084677844584,322.5,448.19584459674917,430,448.19584459674917" fill="none" stroke="#ccc"/><path d="M215,610.7129479071092C322.5,610.7129479071092,322.5,513.124759566331,430,513.124759566331" fill="none" stroke="#ccc"/><path d="M215,610.7129479071092C322.5,610.7129479071092,322.5,590.688472685272,430,590.688472685272" fill="none" stroke="#ccc"/><path d="M215,610.7129479071092C322.5,610.7129479071092,322.5,616.8467407220188,430,616.8467407220188" fill="none" stroke="#ccc"/><path d="M215,610.7129479071092C322.5,610.7129479071092,322.5,649.5542382851199,430,649.5542382851199" fill="none" stroke="#ccc"/><path d="M215,610.7129479071092C322.5,610.7129479071092,322.5,679.1381489175943,430,679.1381489175943" fill="none" stroke="#ccc"/><path d="M215,610.7129479071092C322.5,610.7129479071092,322.5,708.3011362478875,430,708.3011362478875" fill="none" stroke="#ccc"/><path d="M215,879.6159056177602C322.5,879.6159056177602,322.5,790.5144616020203,430,790.5144616020203" fill="none" stroke="#ccc"/><path d="M215,879.6159056177602C322.5,879.6159056177602,322.5,853.4312842071744,430,853.4312842071744" fill="none" stroke="#ccc"/><path d="M215,879.6159056177602C322.5,879.6159056177602,322.5,885.0172989651666,430,885.0172989651666" fill="none" stroke="#ccc"/><path d="M215,879.6159056177602C322.5,879.6159056177602,322.5,928.2934920247839,430,928.2934920247839" fill="none" stroke="#ccc"/><path d="M215,879.6159056177602C322.5,879.6159056177602,322.5,955.6052335697307,430,955.6052335697307" fill="none" stroke="#ccc"/><path d="M215,879.6159056177602C322.5,879.6159056177602,322.5,968.7173496334999,430,968.7173496334999" fill="none" stroke="#ccc"/><path d="M430,88.22584896014254C537.5,88.22584896014254,537.5,11.282650366499995,645,11.282650366499995" fill="none" stroke="#ccc"/><path d="M430,88.22584896014254C537.5,88.22584896014254,537.5,39.56173926842141,645,39.56173926842141" fill="none" stroke="#ccc"/><path d="M430,88.22584896014254C537.5,88.22584896014254,537.5,61.583207399945906,645,61.583207399945906" fill="none" stroke="#ccc"/><path d="M430,88.22584896014254C537.5,88.22584896014254,537.5,79.54269978758985,645,79.54269978758985" fill="none" stroke="#ccc"/><path d="M430,88.22584896014254C537.5,88.22584896014254,537.5,95.05646589824111,645,95.05646589824111" fill="none" stroke="#ccc"/><path d="M430,88.22584896014254C537.5,88.22584896014254,537.5,109.58431477339361,645,109.58431477339361" fill="none" stroke="#ccc"/><path d="M430,88.22584896014254C537.5,88.22584896014254,537.5,123.85809620491952,645,123.85809620491952" fill="none" stroke="#ccc"/><path d="M430,88.22584896014254C537.5,88.22584896014254,537.5,137.86581252699963,645,137.86581252699963" fill="none" stroke="#ccc"/><path d="M430,88.22584896014254C537.5,88.22584896014254,537.5,151.5879288350309,645,151.5879288350309" fill="none" stroke="#ccc"/><path d="M430,88.22584896014254C537.5,88.22584896014254,537.5,165.16904755378508,645,165.16904755378508" fill="none" stroke="#ccc"/><path d="M430,183.71586807185255C537.5,183.71586807185255,537.5,183.71586807185255,645,183.71586807185255" fill="none" stroke="#ccc"/><path d="M430,229.85971358646725C537.5,229.85971358646725,537.5,206.53597330046838,645,206.53597330046838" fill="none" stroke="#ccc"/><path d="M430,229.85971358646725C537.5,229.85971358646725,537.5,224.76780693583981,645,224.76780693583981" fill="none" stroke="#ccc"/><path d="M430,229.85971358646725C537.5,229.85971358646725,537.5,239.08640837982085,645,239.08640837982085" fill="none" stroke="#ccc"/><path d="M430,229.85971358646725C537.5,229.85971358646725,537.5,253.18345387246612,645,253.18345387246612" fill="none" stroke="#ccc"/><path d="M430,268.5886208081193C537.5,268.5886208081193,537.5,268.5886208081193,645,268.5886208081193" fill="none" stroke="#ccc"/><path d="M430,298.8328956690015C537.5,298.8328956690015,537.5,284.6785941457029,645,284.6785941457029" fill="none" stroke="#ccc"/><path d="M430,298.8328956690015C537.5,298.8328956690015,537.5,299.3583210794163,645,299.3583210794163" fill="none" stroke="#ccc"/><path d="M430,298.8328956690015C537.5,298.8328956690015,537.5,312.98719719230024,645,312.98719719230024" fill="none" stroke="#ccc"/><path d="M430,347.0005814623096C537.5,347.0005814623096,537.5,326.7419973073344,645,326.7419973073344" fill="none" stroke="#ccc"/><path d="M430,347.0005814623096C537.5,347.0005814623096,537.5,340.6709080871759,645,340.6709080871759" fill="none" stroke="#ccc"/><path d="M430,347.0005814623096C537.5,347.0005814623096,537.5,354.0802496475148,645,354.0802496475148" fill="none" stroke="#ccc"/><path d="M430,347.0005814623096C537.5,347.0005814623096,537.5,367.25916561728485,645,367.25916561728485" fill="none" stroke="#ccc"/><path d="M430,387.73057498510275C537.5,387.73057498510275,537.5,380.77552056219594,645,380.77552056219594" fill="none" stroke="#ccc"/><path d="M430,387.73057498510275C537.5,387.73057498510275,537.5,394.6856294080095,645,394.6856294080095" fill="none" stroke="#ccc"/><path d="M430,415.0424259487879C537.5,415.0424259487879,537.5,408.35276861171366,645,408.35276861171366" fill="none" stroke="#ccc"/><path d="M430,415.0424259487879C537.5,415.0424259487879,537.5,421.7320832858622,645,421.7320832858622" fill="none" stroke="#ccc"/><path d="M430,435.01692862697905C537.5,435.01692862697905,537.5,435.01692862697905,645,435.01692862697905" fill="none" stroke="#ccc"/><path d="M430,448.19584459674917C537.5,448.19584459674917,537.5,448.19584459674917,645,448.19584459674917" fill="none" stroke="#ccc"/><path d="M430,513.124759566331C537.5,513.124759566331,537.5,467.5739463482863,645,467.5739463482863" fill="none" stroke="#ccc"/><path d="M430,513.124759566331C537.5,513.124759566331,537.5,490.54793200889907,645,490.54793200889907" fill="none" stroke="#ccc"/><path d="M430,513.124759566331C537.5,513.124759566331,537.5,509.79175361774776,645,509.79175361774776" fill="none" stroke="#ccc"/><path d="M430,513.124759566331C537.5,513.124759566331,537.5,527.6411197126092,645,527.6411197126092" fill="none" stroke="#ccc"/><path d="M430,513.124759566331C537.5,513.124759566331,537.5,543.9952349024676,645,543.9952349024676" fill="none" stroke="#ccc"/><path d="M430,513.124759566331C537.5,513.124759566331,537.5,558.6755727843756,645,558.6755727843756" fill="none" stroke="#ccc"/><path d="M430,590.688472685272C537.5,590.688472685272,537.5,580.1933897473525,645,580.1933897473525" fill="none" stroke="#ccc"/><path d="M430,590.688472685272C537.5,590.688472685272,537.5,601.1835556231913,645,601.1835556231913" fill="none" stroke="#ccc"/><path d="M430,616.8467407220188C537.5,616.8467407220188,537.5,616.8467407220188,645,616.8467407220188" fill="none" stroke="#ccc"/><path d="M430,649.5542382851199C537.5,649.5542382851199,537.5,634.8618975004214,645,634.8618975004214" fill="none" stroke="#ccc"/><path d="M430,649.5542382851199C537.5,649.5542382851199,537.5,650.7302241249074,645,650.7302241249074" fill="none" stroke="#ccc"/><path d="M430,649.5542382851199C537.5,649.5542382851199,537.5,664.2465790698186,645,664.2465790698186" fill="none" stroke="#ccc"/><path d="M430,679.1381489175943C537.5,679.1381489175943,537.5,679.1381489175943,645,679.1381489175943" fill="none" stroke="#ccc"/><path d="M430,708.3011362478875C537.5,708.3011362478875,537.5,694.5063740194632,645,694.5063740194632" fill="none" stroke="#ccc"/><path d="M430,708.3011362478875C537.5,708.3011362478875,537.5,708.4062213299704,645,708.4062213299704" fill="none" stroke="#ccc"/><path d="M430,708.3011362478875C537.5,708.3011362478875,537.5,722.0958984763117,645,722.0958984763117" fill="none" stroke="#ccc"/><path d="M430,790.5144616020203C537.5,790.5144616020203,537.5,743.0016397655459,645,743.0016397655459" fill="none" stroke="#ccc"/><path d="M430,790.5144616020203C537.5,790.5144616020203,537.5,765.6360248039748,645,765.6360248039748" fill="none" stroke="#ccc"/><path d="M430,790.5144616020203C537.5,790.5144616020203,537.5,782.1730822639529,645,782.1730822639529" fill="none" stroke="#ccc"/><path d="M430,790.5144616020203C537.5,790.5144616020203,537.5,797.1373702294692,645,797.1373702294692" fill="none" stroke="#ccc"/><path d="M430,790.5144616020203C537.5,790.5144616020203,537.5,810.9488157080657,645,810.9488157080657" fill="none" stroke="#ccc"/><path d="M430,790.5144616020203C537.5,790.5144616020203,537.5,824.5683274325704,645,824.5683274325704" fill="none" stroke="#ccc"/><path d="M430,790.5144616020203C537.5,790.5144616020203,537.5,838.0272834384948,645,838.0272834384948" fill="none" stroke="#ccc"/><path d="M430,853.4312842071744C537.5,853.4312842071744,537.5,853.4312842071744,645,853.4312842071744" fill="none" stroke="#ccc"/><path d="M430,885.0172989651666C537.5,885.0172989651666,537.5,870.123739953214,645,870.123739953214" fill="none" stroke="#ccc"/><path d="M430,885.0172989651666C537.5,885.0172989651666,537.5,885.7478910925204,645,885.7478910925204" fill="none" stroke="#ccc"/><path d="M430,885.0172989651666C537.5,885.0172989651666,537.5,899.9108579771192,645,899.9108579771192" fill="none" stroke="#ccc"/><path d="M430,928.2934920247839C537.5,928.2934920247839,537.5,914.2169813753684,645,914.2169813753684" fill="none" stroke="#ccc"/><path d="M430,928.2934920247839C537.5,928.2934920247839,537.5,928.8904956920238,645,928.8904956920238" fill="none" stroke="#ccc"/><path d="M430,928.2934920247839C537.5,928.2934920247839,537.5,942.3700026741993,645,942.3700026741993" fill="none" stroke="#ccc"/><path d="M430,955.6052335697307C537.5,955.6052335697307,537.5,955.6052335697307,645,955.6052335697307" fill="none" stroke="#ccc"/><path d="M430,968.7173496334999C537.5,968.7173496334999,537.5,968.7173496334999,645,968.7173496334999" fill="none" stroke="#ccc"/></g><g id="nodes"><g transform="translate(0,573.9133761981029)"><circle fill="#ccc" r="22.161208592698195"/><text text-anchor="end" dominant-baseline="text-before-edge" transform="translate(0,0)"><tspan x="-24.161208592698195" y="0" dy="0" style="font-family: Arial, sans-serif; font-size: 10px; fill: black; font-weight: normal;"/></text></g><g id="celu" transform="translate(215,268.21084677844584)"><circle fill="#ccc" r="15.137191675371827"/><text text-anchor="end" dominant-baseline="text-before-edge" transform="translate(0,-5.5)"><tspan x="-17.137191675371827" y="0" dy="0" style="font-family: Arial, sans-serif; font-size: 10px; fill: black; font-weight: normal;">celu</tspan></text></g><g id="mac" transform="translate(215,610.7129479071092)"><circle fill="#ccc" r="13.114807950746247"/><text text-anchor="end" dominant-baseline="text-before-edge" transform="translate(0,-5.5)"><tspan x="-15.114807950746247" y="0" dy="0" style="font-family: Arial, sans-serif; font-size: 10px; fill: black; font-weight: normal;">mac</tspan></text></g><g id="ipad" transform="translate(215,879.6159056177602)"><circle fill="#ccc" r="9.486116533501852"/><text text-anchor="end" dominant-baseline="text-before-edge" transform="translate(0,-5.5)"><tspan x="-11.486116533501852" y="0" dy="0" style="font-family: Arial, sans-serif; font-size: 10px; fill: black; font-weight: normal;">ipad</tspan></text></g><g id="Social" transform="translate(430,88.22584896014254)"><circle fill="#17becf" r="12.60209776770541"/><text text-anchor="end" dominant-baseline="text-before-edge" transform="translate(0,-5.5)"><tspan x="-14.60209776770541" y="0" dy="0" style="font-family: Arial, sans-serif; font-size: 10px; fill: black; font-weight: normal;">Social</tspan></text></g><g id="Games" transform="translate(430,183.71586807185255)"><circle fill="#ff7f0e" r="5.667897020762648"/><text text-anchor="end" dominant-baseline="text-before-edge" transform="translate(0,-5.5)"><tspan x="-7.667897020762648" y="0" dy="0" style="font-family: Arial, sans-serif; font-size: 10px; fill: black; font-weight: normal;">Games</tspan></text></g><g id="Location &amp; Travel" transform="translate(430,229.85971358646725)"><circle fill="#d62728" r="5.144050896759763"/><text text-anchor="end" dominant-baseline="text-before-edge" transform="translate(0,-5.5)"><tspan x="-7.144050896759763" y="0" dy="0" style="font-family: Arial, sans-serif; font-size: 10px; fill: black; font-weight: normal;">Location &amp; Travel</tspan></text></g><g id="Search" transform="translate(430,268.5886208081193)"><circle fill="#7f7f7f" r="2.2527232676308917"/><text text-anchor="end" dominant-baseline="text-before-edge" transform="translate(0,-5.5)"><tspan x="-4.252723267630891" y="0" dy="0" style="font-family: Arial, sans-serif; font-size: 10px; fill: black; font-weight: normal;">Search</tspan></text></g><g id="Photo &amp; Video" transform="translate(430,298.8328956690015)"><circle fill="#8c564b" r="1.7553078286090615"/><text text-anchor="end" dominant-baseline="text-before-edge" transform="translate(0,-5.5)"><tspan x="-3.7553078286090615" y="0" dy="0" style="font-family: Arial, sans-serif; font-size: 10px; fill: black; font-weight: normal;">Photo &amp; Video</tspan></text></g><g id="Education" transform="translate(430,347.0005814623096)"><circle fill="#1f77b4" r="1.2593105902295312"/><text text-anchor="end" dominant-baseline="text-before-edge" transform="translate(0,-5.5)"><tspan x="-3.259310590229531" y="0" dy="0" style="font-family: Arial, sans-serif; font-size: 10px; fill: black; font-weight: normal;">Education</tspan></text></g><g id="Shopping &amp; Food" transform="translate(430,387.73057498510275)"><circle fill="#bcbd22" r="1.0853892287926747"/><text text-anchor="end" dominant-baseline="text-before-edge" transform="translate(0,-5.55224609375)"><tspan x="-3.0853892287926747" y="0" dy="0" style="font-family: Arial, sans-serif; font-size: 10px; fill: black; font-weight: normal;">Shopping &amp; Food</tspan></text></g><g id="Health" transform="translate(430,415.0424259487879)"><circle fill="#2ca02c" r="0.7059845160039531"/><text text-anchor="end" dominant-baseline="text-before-edge" transform="translate(0,-5.5)"><tspan x="-2.7059845160039533" y="0" dy="0" style="font-family: Arial, sans-serif; font-size: 10px; fill: black; font-weight: normal;">Health</tspan></text></g><g id="Miscelaneous" transform="translate(430,435.01692862697905)"><circle fill="#9467bd" r="0.4257246813428671"/><text text-anchor="end" dominant-baseline="text-before-edge" transform="translate(0,-5.5)"><tspan x="-2.4257246813428672" y="0" dy="0" style="font-family: Arial, sans-serif; font-size: 10px; fill: black; font-weight: normal;">Miscelaneous</tspan></text></g><g id="Programming" transform="translate(430,448.19584459674917)"><circle fill="#e377c2" r="0.36868838906095797"/><text text-anchor="end" dominant-baseline="text-before-edge" transform="translate(0,-5.55224609375)"><tspan x="-2.368688389060958" y="0" dy="0" style="font-family: Arial, sans-serif; font-size: 10px; fill: black; font-weight: normal;">Programming</tspan></text></g><g id="Programming" transform="translate(430,513.124759566331)"><circle fill="#e377c2" r="8.897034731020451"/><text text-anchor="end" dominant-baseline="text-before-edge" transform="translate(0,-5.55224609375)"><tspan x="-10.897034731020451" y="0" dy="0" style="font-family: Arial, sans-serif; font-size: 10px; fill: black; font-weight: normal;">Programming</tspan></text></g><g id="Search" transform="translate(430,590.688472685272)"><circle fill="#7f7f7f" r="8.345181126194845"/><text text-anchor="end" dominant-baseline="text-before-edge" transform="translate(0,-5.5)"><tspan x="-10.345181126194845" y="0" dy="0" style="font-family: Arial, sans-serif; font-size: 10px; fill: black; font-weight: normal;">Search</tspan></text></g><g id="Social" transform="translate(430,616.8467407220188)"><circle fill="#17becf" r="2.9418160769394124"/><text text-anchor="end" dominant-baseline="text-before-edge" transform="translate(0,-5.5)"><tspan x="-4.941816076939412" y="0" dy="0" style="font-family: Arial, sans-serif; font-size: 10px; fill: black; font-weight: normal;">Social</tspan></text></g><g id="Education" transform="translate(430,649.5542382851199)"><circle fill="#1f77b4" r="2.879548371173893"/><text text-anchor="end" dominant-baseline="text-before-edge" transform="translate(0,-5.5)"><tspan x="-4.879548371173893" y="0" dy="0" style="font-family: Arial, sans-serif; font-size: 10px; fill: black; font-weight: normal;">Education</tspan></text></g><g id="Photo &amp; Video" transform="translate(430,679.1381489175943)"><circle fill="#8c564b" r="2.1603168137660984"/><text text-anchor="end" dominant-baseline="text-before-edge" transform="translate(0,-5.5)"><tspan x="-4.160316813766098" y="0" dy="0" style="font-family: Arial, sans-serif; font-size: 10px; fill: black; font-weight: normal;">Photo &amp; Video</tspan></text></g><g id="Miscelaneous" transform="translate(430,708.3011362478875)"><circle fill="#9467bd" r="1.2593105902295312"/><text text-anchor="end" dominant-baseline="text-before-edge" transform="translate(0,-5.5)"><tspan x="-3.259310590229531" y="0" dy="0" style="font-family: Arial, sans-serif; font-size: 10px; fill: black; font-weight: normal;">Miscelaneous</tspan></text></g><g id="Education" transform="translate(430,790.5144616020203)"><circle fill="#1f77b4" r="8.620267789624588"/><text text-anchor="end" dominant-baseline="text-before-edge" transform="translate(0,-5.5)"><tspan x="-10.620267789624588" y="0" dy="0" style="font-family: Arial, sans-serif; font-size: 10px; fill: black; font-weight: normal;">Education</tspan></text></g><g id="Search" transform="translate(430,853.4312842071744)"><circle fill="#7f7f7f" r="2.5720254483798817"/><text text-anchor="end" dominant-baseline="text-before-edge" transform="translate(0,-5.5)"><tspan x="-4.572025448379882" y="0" dy="0" style="font-family: Arial, sans-serif; font-size: 10px; fill: black; font-weight: normal;">Search</tspan></text></g><g id="Miscelaneous" transform="translate(430,885.0172989651666)"><circle fill="#9467bd" r="2.3414857473857693"/><text text-anchor="end" dominant-baseline="text-before-edge" transform="translate(0,-5.5)"><tspan x="-4.34148574738577" y="0" dy="0" style="font-family: Arial, sans-serif; font-size: 10px; fill: black; font-weight: normal;">Miscelaneous</tspan></text></g><g id="Social" transform="translate(430,928.2934920247839)"><circle fill="#17becf" r="1.8186966359337844"/><text text-anchor="end" dominant-baseline="text-before-edge" transform="translate(0,-5.5)"><tspan x="-3.8186966359337844" y="0" dy="0" style="font-family: Arial, sans-serif; font-size: 10px; fill: black; font-weight: normal;">Social</tspan></text></g><g id="Programming" transform="translate(430,955.6052335697307)"><circle fill="#e377c2" r="0.4257246813428671"/><text text-anchor="end" dominant-baseline="text-before-edge" transform="translate(0,-5.55224609375)"><tspan x="-2.4257246813428672" y="0" dy="0" style="font-family: Arial, sans-serif; font-size: 10px; fill: black; font-weight: normal;">Programming</tspan></text></g><g id="Location &amp; Travel" transform="translate(430,968.7173496334999)"><circle fill="#d62728" r="0.3010328090960234"/><text text-anchor="end" dominant-baseline="text-before-edge" transform="translate(0,-5.5)"><tspan x="-2.3010328090960233" y="0" dy="0" style="font-family: Arial, sans-serif; font-size: 10px; fill: black; font-weight: normal;">Location &amp; Travel</tspan></text></g><g id="Instagram" transform="translate(645,11.282650366499995)"><circle fill="#17becf" r="10"/><text text-anchor="start" dominant-baseline="text-before-edge" transform="translate(0,-5.55224609375)"><tspan x="12" y="0" dy="0" style="font-family: Arial, sans-serif; font-size: 10px; fill: black; font-weight: bold;">Instagram</tspan></text></g><g id="WhatsApp" transform="translate(645,39.56173926842141)"><circle fill="#17becf" r="6.088011796166901"/><text text-anchor="start" dominant-baseline="text-before-edge" transform="translate(0,-5.5)"><tspan x="8.088011796166901" y="0" dy="0" style="font-family: Arial, sans-serif; font-size: 10px; fill: black; font-weight: bold;">WhatsApp</tspan></text></g><g id="Tiktok" transform="translate(645,61.583207399945906)"><circle fill="#17becf" r="3.662222183119417"/><text text-anchor="start" dominant-baseline="text-before-edge" transform="translate(0,-5.5)"><tspan x="5.662222183119416" y="0" dy="0" style="font-family: Arial, sans-serif; font-size: 10px; fill: black; font-weight: bold;">Tiktok</tspan></text></g><g id="TikTok" transform="translate(645,79.54269978758985)"><circle fill="#17becf" r="1.9740041394451138"/><text text-anchor="start" dominant-baseline="text-before-edge" transform="translate(0,-5.5)"><tspan x="3.974004139445114" y="0" dy="0" style="font-family: Arial, sans-serif; font-size: 10px; fill: black; font-weight: bold;">TikTok</tspan></text></g><g id="Spotify" transform="translate(645,95.05646589824111)"><circle fill="#17becf" r="1.1851673545789911"/><text text-anchor="start" dominant-baseline="text-before-edge" transform="translate(0,-5.55224609375)"><tspan x="3.185167354578991" y="0" dy="0" style="font-family: Arial, sans-serif; font-size: 10px; fill: black; font-weight: bold;">Spotify</tspan></text></g><g id="Pinterest" transform="translate(645,109.58431477339361)"><circle fill="#17becf" r="0.9754577887323214"/><text text-anchor="start" dominant-baseline="text-before-edge" transform="translate(0,-5.5)"><tspan x="2.9754577887323213" y="0" dy="0" style="font-family: Arial, sans-serif; font-size: 10px; fill: black; font-weight: bold;">Pinterest</tspan></text></g><g id="Mail" transform="translate(645,123.85809620491952)"><circle fill="#17becf" r="0.9278454318723067"/><text text-anchor="start" dominant-baseline="text-before-edge" transform="translate(0,-5.5)"><tspan x="2.927845431872307" y="0" dy="0" style="font-family: Arial, sans-serif; font-size: 10px; fill: black; font-weight: bold;">Mail</tspan></text></g><g id="X" transform="translate(645,137.86581252699963)"><circle fill="#17becf" r="0.7059845160039531"/><text text-anchor="start" dominant-baseline="text-before-edge" transform="translate(0,-5.5)"><tspan x="2.7059845160039533" y="0" dy="0" style="font-family: Arial, sans-serif; font-size: 10px; fill: black; font-weight: bold;">X</tspan></text></g><g id="LinkedIn" transform="translate(645,151.5879288350309)"><circle fill="#17becf" r="0.6385870220143007"/><text text-anchor="start" dominant-baseline="text-before-edge" transform="translate(0,-5.5)"><tspan x="2.638587022014301" y="0" dy="0" style="font-family: Arial, sans-serif; font-size: 10px; fill: black; font-weight: bold;">LinkedIn</tspan></text></g><g id="YouTube" transform="translate(645,165.16904755378508)"><circle fill="#17becf" r="0.5631808169077229"/><text text-anchor="start" dominant-baseline="text-before-edge" transform="translate(0,-5.5)"><tspan x="2.563180816907723" y="0" dy="0" style="font-family: Arial, sans-serif; font-size: 10px; fill: black; font-weight: bold;">YouTube</tspan></text></g><g id="Juego" transform="translate(645,183.71586807185255)"><circle fill="#ff7f0e" r="5.667897020762648"/><text text-anchor="start" dominant-baseline="text-before-edge" transform="translate(0,-5.55224609375)"><tspan x="7.667897020762648" y="0" dy="0" style="font-family: Arial, sans-serif; font-size: 10px; fill: black; font-weight: bold;">Juego</tspan></text></g><g id="Waze" transform="translate(645,206.53597330046838)"><circle fill="#d62728" r="4.8912042043030795"/><text text-anchor="start" dominant-baseline="text-before-edge" transform="translate(0,-5.5)"><tspan x="6.8912042043030795" y="0" dy="0" style="font-family: Arial, sans-serif; font-size: 10px; fill: black; font-weight: bold;">Waze</tspan></text></g><g id="FindMy" transform="translate(645,224.76780693583981)"><circle fill="#d62728" r="1.020851923518192"/><text text-anchor="start" dominant-baseline="text-before-edge" transform="translate(0,-5.55224609375)"><tspan x="3.020851923518192" y="0" dy="0" style="font-family: Arial, sans-serif; font-size: 10px; fill: black; font-weight: bold;">FindMy</tspan></text></g><g id="Cabify" transform="translate(645,239.08640837982085)"><circle fill="#d62728" r="0.9278454318723067"/><text text-anchor="start" dominant-baseline="text-before-edge" transform="translate(0,-5.55224609375)"><tspan x="2.927845431872307" y="0" dy="0" style="font-family: Arial, sans-serif; font-size: 10px; fill: black; font-weight: bold;">Cabify</tspan></text></g><g id="Maps" transform="translate(645,253.18345387246612)"><circle fill="#d62728" r="0.7964579493392605"/><text text-anchor="start" dominant-baseline="text-before-edge" transform="translate(0,-5.5)"><tspan x="2.7964579493392607" y="0" dy="0" style="font-family: Arial, sans-serif; font-size: 10px; fill: black; font-weight: bold;">Maps</tspan></text></g><g id="Safari" transform="translate(645,268.5886208081193)"><circle fill="#7f7f7f" r="2.2527232676308917"/><text text-anchor="start" dominant-baseline="text-before-edge" transform="translate(0,-5.5)"><tspan x="4.252723267630891" y="0" dy="0" style="font-family: Arial, sans-serif; font-size: 10px; fill: black; font-weight: bold;">Safari</tspan></text></g><g id="Photos" transform="translate(645,284.6785941457029)"><circle fill="#8c564b" r="1.490036384700035"/><text text-anchor="start" dominant-baseline="text-before-edge" transform="translate(0,-5.5)"><tspan x="3.4900363847000353" y="0" dy="0" style="font-family: Arial, sans-serif; font-size: 10px; fill: black; font-weight: bold;">Photos</tspan></text></g><g id="Camera" transform="translate(645,299.3583210794163)"><circle fill="#8c564b" r="0.8244123004551919"/><text text-anchor="start" dominant-baseline="text-before-edge" transform="translate(0,-5.5)"><tspan x="2.824412300455192" y="0" dy="0" style="font-family: Arial, sans-serif; font-size: 10px; fill: black; font-weight: bold;">Camera</tspan></text></g><g id="CamScanner" transform="translate(645,312.98719719230024)"><circle fill="#8c564b" r="0.4257246813428671"/><text text-anchor="start" dominant-baseline="text-before-edge" transform="translate(0,-5.5)"><tspan x="2.4257246813428672" y="0" dy="0" style="font-family: Arial, sans-serif; font-size: 10px; fill: black; font-weight: bold;">CamScanner</tspan></text></g><g id="Preview" transform="translate(645,326.7419973073344)"><circle fill="#1f77b4" r="0.9519493271820874"/><text text-anchor="start" dominant-baseline="text-before-edge" transform="translate(0,-5.5)"><tspan x="2.9519493271820876" y="0" dy="0" style="font-family: Arial, sans-serif; font-size: 10px; fill: black; font-weight: bold;">Preview</tspan></text></g><g id="Authenticator" transform="translate(645,340.6709080871759)"><circle fill="#1f77b4" r="0.6020656181920468"/><text text-anchor="start" dominant-baseline="text-before-edge" transform="translate(0,-5.5)"><tspan x="2.602065618192047" y="0" dy="0" style="font-family: Arial, sans-serif; font-size: 10px; fill: black; font-weight: bold;">Authenticator</tspan></text></g><g id="SGA" transform="translate(645,354.0802496475148)"><circle fill="#1f77b4" r="0.4257246813428671"/><text text-anchor="start" dominant-baseline="text-before-edge" transform="translate(0,-5.5)"><tspan x="2.4257246813428672" y="0" dy="0" style="font-family: Arial, sans-serif; font-size: 10px; fill: black; font-weight: bold;">SGA</tspan></text></g><g id="Drive" transform="translate(645,367.25916561728485)"><circle fill="#1f77b4" r="0.36868838906095797"/><text text-anchor="start" dominant-baseline="text-before-edge" transform="translate(0,-5.5)"><tspan x="2.368688389060958" y="0" dy="0" style="font-family: Arial, sans-serif; font-size: 10px; fill: black; font-weight: bold;">Drive</tspan></text></g><g id="Amazon" transform="translate(645,380.77552056219594)"><circle fill="#bcbd22" r="0.7674860839061375"/><text text-anchor="start" dominant-baseline="text-before-edge" transform="translate(0,-5.5)"><tspan x="2.7674860839061375" y="0" dy="0" style="font-family: Arial, sans-serif; font-size: 10px; fill: black; font-weight: bold;">Amazon</tspan></text></g><g id="Rappi" transform="translate(645,394.6856294080095)"><circle fill="#bcbd22" r="0.7674860839061375"/><text text-anchor="start" dominant-baseline="text-before-edge" transform="translate(0,-5.5)"><tspan x="2.7674860839061375" y="0" dy="0" style="font-family: Arial, sans-serif; font-size: 10px; fill: black; font-weight: bold;">Rappi</tspan></text></g><g id="Health" transform="translate(645,408.35276861171366)"><circle fill="#2ca02c" r="0.521404120099495"/><text text-anchor="start" dominant-baseline="text-before-edge" transform="translate(0,-5.5)"><tspan x="2.521404120099495" y="0" dy="0" style="font-family: Arial, sans-serif; font-size: 10px; fill: black; font-weight: bold;">Health</tspan></text></g><g id="OSDE" transform="translate(645,421.7320832858622)"><circle fill="#2ca02c" r="0.4759746635910437"/><text text-anchor="start" dominant-baseline="text-before-edge" transform="translate(0,-5.5)"><tspan x="2.475974663591044" y="0" dy="0" style="font-family: Arial, sans-serif; font-size: 10px; fill: black; font-weight: bold;">OSDE</tspan></text></g><g id="Settings" transform="translate(645,435.01692862697905)"><circle fill="#9467bd" r="0.4257246813428671"/><text text-anchor="start" dominant-baseline="text-before-edge" transform="translate(0,-5.55224609375)"><tspan x="2.4257246813428672" y="0" dy="0" style="font-family: Arial, sans-serif; font-size: 10px; fill: black; font-weight: bold;">Settings</tspan></text></g><g id="ClickUp" transform="translate(645,448.19584459674917)"><circle fill="#e377c2" r="0.36868838906095797"/><text text-anchor="start" dominant-baseline="text-before-edge" transform="translate(0,-5.5)"><tspan x="2.368688389060958" y="0" dy="0" style="font-family: Arial, sans-serif; font-size: 10px; fill: black; font-weight: bold;">ClickUp</tspan></text></g><g id="VSCode" transform="translate(645,467.5739463482863)"><circle fill="#e377c2" r="6.70431898610981"/><text text-anchor="start" dominant-baseline="text-before-edge" transform="translate(0,-5.5)"><tspan x="8.70431898610981" y="0" dy="0" style="font-family: Arial, sans-serif; font-size: 10px; fill: black; font-weight: bold;">VSCode</tspan></text></g><g id="IntelliJ" transform="translate(645,490.54793200889907)"><circle fill="#e377c2" r="4.010633803655367"/><text text-anchor="start" dominant-baseline="text-before-edge" transform="translate(0,-5.5)"><tspan x="6.010633803655367" y="0" dy="0" style="font-family: Arial, sans-serif; font-size: 10px; fill: black; font-weight: bold;">IntelliJ</tspan></text></g><g id="VirtualBox" transform="translate(645,509.79175361774776)"><circle fill="#e377c2" r="2.926373366196964"/><text text-anchor="start" dominant-baseline="text-before-edge" transform="translate(0,-5.5)"><tspan x="4.926373366196964" y="0" dy="0" style="font-family: Arial, sans-serif; font-size: 10px; fill: black; font-weight: bold;">VirtualBox</tspan></text></g><g id="Terminal" transform="translate(645,527.6411197126092)"><circle fill="#e377c2" r="2.598315999901108"/><text text-anchor="start" dominant-baseline="text-before-edge" transform="translate(0,-5.5)"><tspan x="4.598315999901108" y="0" dy="0" style="font-family: Arial, sans-serif; font-size: 10px; fill: black; font-weight: bold;">Terminal</tspan></text></g><g id="GitDesktop" transform="translate(645,543.9952349024676)"><circle fill="#e377c2" r="1.4119690320079061"/><text text-anchor="start" dominant-baseline="text-before-edge" transform="translate(0,-5.5)"><tspan x="3.411969032007906" y="0" dy="0" style="font-family: Arial, sans-serif; font-size: 10px; fill: black; font-weight: bold;">GitDesktop</tspan></text></g><g id="Cursor" transform="translate(645,558.6755727843756)"><circle fill="#e377c2" r="0.9030984272880702"/><text text-anchor="start" dominant-baseline="text-before-edge" transform="translate(0,-5.5)"><tspan x="2.90309842728807" y="0" dy="0" style="font-family: Arial, sans-serif; font-size: 10px; fill: black; font-weight: bold;">Cursor</tspan></text></g><g id="google" transform="translate(645,580.1933897473525)"><circle fill="#7f7f7f" r="8.337032859523243"/><text text-anchor="start" dominant-baseline="text-before-edge" transform="translate(0,-5.55224609375)"><tspan x="10.337032859523243" y="0" dy="0" style="font-family: Arial, sans-serif; font-size: 10px; fill: black; font-weight: bold;">google</tspan></text></g><g id="Safari" transform="translate(645,601.1835556231913)"><circle fill="#7f7f7f" r="0.36868838906095797"/><text text-anchor="start" dominant-baseline="text-before-edge" transform="translate(0,-5.5)"><tspan x="2.368688389060958" y="0" dy="0" style="font-family: Arial, sans-serif; font-size: 10px; fill: black; font-weight: bold;">Safari</tspan></text></g><g id="Discord" transform="translate(645,616.8467407220188)"><circle fill="#17becf" r="2.9418160769394124"/><text text-anchor="start" dominant-baseline="text-before-edge" transform="translate(0,-5.5)"><tspan x="4.941816076939412" y="0" dy="0" style="font-family: Arial, sans-serif; font-size: 10px; fill: black; font-weight: bold;">Discord</tspan></text></g><g id="OneNote" transform="translate(645,634.8618975004214)"><circle fill="#1f77b4" r="2.7507876698706286"/><text text-anchor="start" dominant-baseline="text-before-edge" transform="translate(0,-5.5)"><tspan x="4.750787669870629" y="0" dy="0" style="font-family: Arial, sans-serif; font-size: 10px; fill: black; font-weight: bold;">OneNote</tspan></text></g><g id="Respondus" transform="translate(645,650.7302241249074)"><circle fill="#1f77b4" r="0.7674860839061375"/><text text-anchor="start" dominant-baseline="text-before-edge" transform="translate(0,-5.5)"><tspan x="2.7674860839061375" y="0" dy="0" style="font-family: Arial, sans-serif; font-size: 10px; fill: black; font-weight: bold;">Respondus</tspan></text></g><g id="Preview" transform="translate(645,664.2465790698186)"><circle fill="#1f77b4" r="0.36868838906095797"/><text text-anchor="start" dominant-baseline="text-before-edge" transform="translate(0,-5.5)"><tspan x="2.368688389060958" y="0" dy="0" style="font-family: Arial, sans-serif; font-size: 10px; fill: black; font-weight: bold;">Preview</tspan></text></g><g id="QuickTime Player" transform="translate(645,679.1381489175943)"><circle fill="#8c564b" r="2.1603168137660984"/><text text-anchor="start" dominant-baseline="text-before-edge" transform="translate(0,-5.55224609375)"><tspan x="4.160316813766098" y="0" dy="0" style="font-family: Arial, sans-serif; font-size: 10px; fill: black; font-weight: bold;">QuickTime Player</tspan></text></g><g id="Finder" transform="translate(645,694.5063740194632)"><circle fill="#9467bd" r="0.8514493626857342"/><text text-anchor="start" dominant-baseline="text-before-edge" transform="translate(0,-5.5)"><tspan x="2.8514493626857345" y="0" dy="0" style="font-family: Arial, sans-serif; font-size: 10px; fill: black; font-weight: bold;">Finder</tspan></text></g><g id="Notas" transform="translate(645,708.4062213299704)"><circle fill="#9467bd" r="0.6731298245964255"/><text text-anchor="start" dominant-baseline="text-before-edge" transform="translate(0,-5.5)"><tspan x="2.6731298245964252" y="0" dy="0" style="font-family: Arial, sans-serif; font-size: 10px; fill: black; font-weight: bold;">Notas</tspan></text></g><g id="Settings" transform="translate(645,722.0958984763117)"><circle fill="#9467bd" r="0.6385870220143007"/><text text-anchor="start" dominant-baseline="text-before-edge" transform="translate(0,-5.55224609375)"><tspan x="2.638587022014301" y="0" dy="0" style="font-family: Arial, sans-serif; font-size: 10px; fill: black; font-weight: bold;">Settings</tspan></text></g><g id="OneNote" transform="translate(645,743.0016397655459)"><circle fill="#1f77b4" r="7.981628202505222"/><text text-anchor="start" dominant-baseline="text-before-edge" transform="translate(0,-5.5)"><tspan x="9.981628202505222" y="0" dy="0" style="font-family: Arial, sans-serif; font-size: 10px; fill: black; font-weight: bold;">OneNote</tspan></text></g><g id="Books" transform="translate(645,765.6360248039748)"><circle fill="#1f77b4" r="2.3893738480177817"/><text text-anchor="start" dominant-baseline="text-before-edge" transform="translate(0,-5.5)"><tspan x="4.389373848017781" y="0" dy="0" style="font-family: Arial, sans-serif; font-size: 10px; fill: black; font-weight: bold;">Books</tspan></text></g><g id="Drive" transform="translate(645,782.1730822639529)"><circle fill="#1f77b4" r="1.8061968545761404"/><text text-anchor="start" dominant-baseline="text-before-edge" transform="translate(0,-5.5)"><tspan x="3.8061968545761404" y="0" dy="0" style="font-family: Arial, sans-serif; font-size: 10px; fill: black; font-weight: bold;">Drive</tspan></text></g><g id="Sheets" transform="translate(645,797.1373702294692)"><circle fill="#1f77b4" r="0.7964579493392605"/><text text-anchor="start" dominant-baseline="text-before-edge" transform="translate(0,-5.5)"><tspan x="2.7964579493392607" y="0" dy="0" style="font-family: Arial, sans-serif; font-size: 10px; fill: black; font-weight: bold;">Sheets</tspan></text></g><g id="RawGraphs" transform="translate(645,810.9488157080657)"><circle fill="#1f77b4" r="0.6385870220143007"/><text text-anchor="start" dominant-baseline="text-before-edge" transform="translate(0,-5.5)"><tspan x="2.638587022014301" y="0" dy="0" style="font-family: Arial, sans-serif; font-size: 10px; fill: black; font-weight: bold;">RawGraphs</tspan></text></g><g id="Campus" transform="translate(645,824.5683274325704)"><circle fill="#1f77b4" r="0.6020656181920468"/><text text-anchor="start" dominant-baseline="text-before-edge" transform="translate(0,-5.5)"><tspan x="2.602065618192047" y="0" dy="0" style="font-family: Arial, sans-serif; font-size: 10px; fill: black; font-weight: bold;">Campus</tspan></text></g><g id="Word" transform="translate(645,838.0272834384948)"><circle fill="#1f77b4" r="0.4759746635910437"/><text text-anchor="start" dominant-baseline="text-before-edge" transform="translate(0,-5.5)"><tspan x="2.475974663591044" y="0" dy="0" style="font-family: Arial, sans-serif; font-size: 10px; fill: black; font-weight: bold;">Word</tspan></text></g><g id="Safari" transform="translate(645,853.4312842071744)"><circle fill="#7f7f7f" r="2.5720254483798817"/><text text-anchor="start" dominant-baseline="text-before-edge" transform="translate(0,-5.5)"><tspan x="4.572025448379882" y="0" dy="0" style="font-family: Arial, sans-serif; font-size: 10px; fill: black; font-weight: bold;">Safari</tspan></text></g><g id="Files" transform="translate(645,870.123739953214)"><circle fill="#9467bd" r="1.7809341159426704"/><text text-anchor="start" dominant-baseline="text-before-edge" transform="translate(0,-5.5)"><tspan x="3.7809341159426704" y="0" dy="0" style="font-family: Arial, sans-serif; font-size: 10px; fill: black; font-weight: bold;">Files</tspan></text></g><g id="Settings" transform="translate(645,885.7478910925204)"><circle fill="#9467bd" r="1.490036384700035"/><text text-anchor="start" dominant-baseline="text-before-edge" transform="translate(0,-5.55224609375)"><tspan x="3.4900363847000353" y="0" dy="0" style="font-family: Arial, sans-serif; font-size: 10px; fill: black; font-weight: bold;">Settings</tspan></text></g><g id="AppStore" transform="translate(645,899.9108579771192)"><circle fill="#9467bd" r="0.3010328090960234"/><text text-anchor="start" dominant-baseline="text-before-edge" transform="translate(0,-5.5)"><tspan x="2.3010328090960233" y="0" dy="0" style="font-family: Arial, sans-serif; font-size: 10px; fill: black; font-weight: bold;">AppStore</tspan></text></g><g id="WhatsApp" transform="translate(645,914.2169813753684)"><circle fill="#17becf" r="1.6350266629297407"/><text text-anchor="start" dominant-baseline="text-before-edge" transform="translate(0,-5.5)"><tspan x="3.6350266629297407" y="0" dy="0" style="font-family: Arial, sans-serif; font-size: 10px; fill: black; font-weight: bold;">WhatsApp</tspan></text></g><g id="Netflix" transform="translate(645,928.8904956920238)"><circle fill="#17becf" r="0.6731298245964255"/><text text-anchor="start" dominant-baseline="text-before-edge" transform="translate(0,-5.5)"><tspan x="2.6731298245964252" y="0" dy="0" style="font-family: Arial, sans-serif; font-size: 10px; fill: black; font-weight: bold;">Netflix</tspan></text></g><g id="Mail" transform="translate(645,942.3700026741993)"><circle fill="#17becf" r="0.4257246813428671"/><text text-anchor="start" dominant-baseline="text-before-edge" transform="translate(0,-5.5)"><tspan x="2.4257246813428672" y="0" dy="0" style="font-family: Arial, sans-serif; font-size: 10px; fill: black; font-weight: bold;">Mail</tspan></text></g><g id="GitHub" transform="translate(645,955.6052335697307)"><circle fill="#e377c2" r="0.4257246813428671"/><text text-anchor="start" dominant-baseline="text-before-edge" transform="translate(0,-5.5)"><tspan x="2.4257246813428672" y="0" dy="0" style="font-family: Arial, sans-serif; font-size: 10px; fill: black; font-weight: bold;">GitHub</tspan></text></g><g id="FindMy" transform="translate(645,968.7173496334999)"><circle fill="#d62728" r="0.3010328090960234"/><text text-anchor="start" dominant-baseline="text-before-edge" transform="translate(0,-5.55224609375)"><tspan x="2.3010328090960233" y="0" dy="0" style="font-family: Arial, sans-serif; font-size: 10px; fill: black; font-weight: bold;">FindMy</tspan></text></g></g></g><g id="legend" transform="translate(805,10)"><g transform="translate(5,0)"><g class="legendColor" transform="translate(0,83.5)"><g class="legendCells" transform="translate(0,15.5)"><g class="cell" transform="translate(0, 0)"><rect class="swatch" height="15" width="15" style="fill: rgb(31, 119, 180);"/><text class="label" transform="translate( 20, 12.5)" font-family="&quot;Arial&quot;, sans-serif" font-size="10px"><tspan x="0" dy="0em">Education</tspan></text></g><g class="cell" transform="translate(0, 20.5)"><rect class="swatch" height="15" width="15" style="fill: rgb(255, 127, 14);"/><text class="label" transform="translate( 20, 12.5)" font-family="&quot;Arial&quot;, sans-serif" font-size="10px"><tspan x="0" dy="0em">Games</tspan></text></g><g class="cell" transform="translate(0, 41)"><rect class="swatch" height="15" width="15" style="fill: rgb(44, 160, 44);"/><text class="label" transform="translate( 20, 12.5)" font-family="&quot;Arial&quot;, sans-serif" font-size="10px"><tspan x="0" dy="0em">Health</tspan></text></g><g class="cell" transform="translate(0, 61.5)"><rect class="swatch" height="15" width="15" style="fill: rgb(214, 39, 40);"/><text class="label" transform="translate( 20, 12.5)" font-family="&quot;Arial&quot;, sans-serif" font-size="10px"><tspan x="0" dy="0em">Location &amp; Travel</tspan></text></g><g class="cell" transform="translate(0, 82)"><rect class="swatch" height="15" width="15" style="fill: rgb(148, 103, 189);"/><text class="label" transform="translate( 20, 12.5)" font-family="&quot;Arial&quot;, sans-serif" font-size="10px"><tspan x="0" dy="0em">Miscelaneous</tspan></text></g><g class="cell" transform="translate(0, 102.5)"><rect class="swatch" height="15" width="15" style="fill: rgb(140, 86, 75);"/><text class="label" transform="translate( 20, 12.5)" font-family="&quot;Arial&quot;, sans-serif" font-size="10px"><tspan x="0" dy="0em">Photo &amp; Video</tspan></text></g><g class="cell" transform="translate(0, 123)"><rect class="swatch" height="15" width="15" style="fill: rgb(227, 119, 194);"/><text class="label" transform="translate( 20, 12.5)" font-family="&quot;Arial&quot;, sans-serif" font-size="10px"><tspan x="0" dy="0em">Programming</tspan></text></g><g class="cell" transform="translate(0, 143.5)"><rect class="swatch" height="15" width="15" style="fill: rgb(127, 127, 127);"/><text class="label" transform="translate( 20, 12.5)" font-family="&quot;Arial&quot;, sans-serif" font-size="10px"><tspan x="0" dy="0em">Search</tspan></text></g><g class="cell" transform="translate(0, 164)"><rect class="swatch" height="15" width="15" style="fill: rgb(188, 189, 34);"/><text class="label" transform="translate( 20, 12.5)" font-family="&quot;Arial&quot;, sans-serif" font-size="10px"><tspan x="0" dy="0em">Shopping &amp; Food</tspan></text></g><g class="cell" transform="translate(0, 184.5)"><rect class="swatch" height="15" width="15" style="fill: rgb(23, 190, 207);"/><text class="label" transform="translate( 20, 12.5)" font-family="&quot;Arial&quot;, sans-serif" font-size="10px"><tspan x="0" dy="0em">Social</tspan></text></g></g><text class="legendTitle" font-family="&quot;Arial&quot;, sans-serif" font-size="12px" font-weight="bold"><tspan x="0" dy="0em">categoria</tspan></text></g></g></g></svg>