<svg xmlns="http://www.w3.org/2000/svg" width="1005" height="600"><rect width="1005" height="600" x="0" y="0" fill="#FFFFFF" id="background"/><g transform="translate(10,10)" id="viz"><g id="links"><path d="M0,341.2330439835729C107.5,341.2330439835729,107.5,158.66006055343587,215,158.66006055343587" fill="none" stroke="#ccc"/><path d="M0,341.2330439835729C107.5,341.2330439835729,107.5,367.9641625169932,215,367.9641625169932" fill="none" stroke="#ccc"/><path d="M0,341.2330439835729C107.5,341.2330439835729,107.5,523.8060274137098,215,523.8060274137098" fill="none" stroke="#ccc"/><path d="M215,158.66006055343587C322.5,158.66006055343587,322.5,62.24606309626658,430,62.24606309626658" fill="none" stroke="#ccc"/><path d="M215,158.66006055343587C322.5,158.66006055343587,322.5,129.55511519638128,430,129.55511519638128" fill="none" stroke="#ccc"/><path d="M215,158.66006055343587C322.5,158.66006055343587,322.5,165.13318999098038,430,165.13318999098038" fill="none" stroke="#ccc"/><path d="M215,158.66006055343587C322.5,158.66006055343587,322.5,193.04067783771316,430,193.04067783771316" fill="none" stroke="#ccc"/><path d="M215,158.66006055343587C322.5,158.66006055343587,322.5,210.13522740272208,430,210.13522740272208" fill="none" stroke="#ccc"/><path d="M215,158.66006055343587C322.5,158.66006055343587,322.5,230.26401621187003,430,230.26401621187003" fill="none" stroke="#ccc"/><path d="M215,158.66006055343587C322.5,158.66006055343587,322.5,245.2592008744178,430,245.2592008744178" fill="none" stroke="#ccc"/><path d="M215,158.66006055343587C322.5,158.66006055343587,322.5,255.07405801060517,430,255.07405801060517" fill="none" stroke="#ccc"/><path d="M215,367.9641625169932C322.5,367.9641625169932,322.5,305.6617154166398,430,305.6617154166398" fill="none" stroke="#ccc"/><path d="M215,367.9641625169932C322.5,367.9641625169932,322.5,358.2347361989108,430,358.2347361989108" fill="none" stroke="#ccc"/><path d="M215,367.9641625169932C322.5,367.9641625169932,322.5,377.7137079954412,430,377.7137079954412" fill="none" stroke="#ccc"/><path d="M215,367.9641625169932C322.5,367.9641625169932,322.5,397.4468862099547,430,397.4468862099547" fill="none" stroke="#ccc"/><path d="M215,367.9641625169932C322.5,367.9641625169932,322.5,414.3412409338208,430,414.3412409338208" fill="none" stroke="#ccc"/><path d="M215,367.9641625169932C322.5,367.9641625169932,322.5,430.2666096173466,430,430.2666096173466" fill="none" stroke="#ccc"/><path d="M215,523.8060274137098C322.5,523.8060274137098,322.5,482.35110793677336,430,482.35110793677336" fill="none" stroke="#ccc"/><path d="M215,523.8060274137098C322.5,523.8060274137098,322.5,524.4134715979752,430,524.4134715979752" fill="none" stroke="#ccc"/><path d="M215,523.8060274137098C322.5,523.8060274137098,322.5,542.8368599194994,430,542.8368599194994" fill="none" stroke="#ccc"/><path d="M215,523.8060274137098C322.5,523.8060274137098,322.5,565.2609468906461,430,565.2609468906461" fill="none" stroke="#ccc"/><path d="M430,62.24606309626658C537.5,62.24606309626658,537.5,9.440993131862172,645,9.440993131862172" fill="none" stroke="#ccc"/><path d="M430,62.24606309626658C537.5,62.24606309626658,537.5,33.659786730128566,645,33.659786730128566" fill="none" stroke="#ccc"/><path d="M430,62.24606309626658C537.5,62.24606309626658,537.5,52.12313560060235,645,52.12313560060235" fill="none" stroke="#ccc"/><path d="M430,62.24606309626658C537.5,62.24606309626658,537.5,65.75433183813585,645,65.75433183813585" fill="none" stroke="#ccc"/><path d="M430,62.24606309626658C537.5,62.24606309626658,537.5,76.24655122292847,645,76.24655122292847" fill="none" stroke="#ccc"/><path d="M430,62.24606309626658C537.5,62.24606309626658,537.5,86.26649688117995,645,86.26649688117995" fill="none" stroke="#ccc"/><path d="M430,62.24606309626658C537.5,62.24606309626658,537.5,95.95442895389941,645,95.95442895389941" fill="none" stroke="#ccc"/><path d="M430,62.24606309626658C537.5,62.24606309626658,537.5,105.5399404865311,645,105.5399404865311" fill="none" stroke="#ccc"/><path d="M430,62.24606309626658C537.5,62.24606309626658,537.5,115.05113306067099,645,115.05113306067099" fill="none" stroke="#ccc"/><path d="M430,129.55511519638128C537.5,129.55511519638128,537.5,129.55511519638128,645,129.55511519638128" fill="none" stroke="#ccc"/><path d="M430,165.13318999098038C537.5,165.13318999098038,537.5,148.311002362293,645,148.311002362293" fill="none" stroke="#ccc"/><path d="M430,165.13318999098038C537.5,165.13318999098038,537.5,162.39518251436544,645,162.39518251436544" fill="none" stroke="#ccc"/><path d="M430,165.13318999098038C537.5,165.13318999098038,537.5,172.3358213408821,645,172.3358213408821" fill="none" stroke="#ccc"/><path d="M430,165.13318999098038C537.5,165.13318999098038,537.5,181.95537761966776,645,181.95537761966776" fill="none" stroke="#ccc"/><path d="M430,193.04067783771316C537.5,193.04067783771316,537.5,193.04067783771316,645,193.04067783771316" fill="none" stroke="#ccc"/><path d="M430,210.13522740272208C537.5,210.13522740272208,537.5,204.87592512581452,645,204.87592512581452" fill="none" stroke="#ccc"/><path d="M430,210.13522740272208C537.5,210.13522740272208,537.5,215.39452967962967,645,215.39452967962967" fill="none" stroke="#ccc"/><path d="M430,230.26401621187003C537.5,230.26401621187003,537.5,225.32622250918982,645,225.32622250918982" fill="none" stroke="#ccc"/><path d="M430,230.26401621187003C537.5,230.26401621187003,537.5,235.2018099145502,645,235.2018099145502" fill="none" stroke="#ccc"/><path d="M430,245.2592008744178C537.5,245.2592008744178,537.5,245.2592008744178,645,245.2592008744178" fill="none" stroke="#ccc"/><path d="M430,255.07405801060517C537.5,255.07405801060517,537.5,255.07405801060517,645,255.07405801060517" fill="none" stroke="#ccc"/><path d="M430,305.6617154166398C537.5,305.6617154166398,537.5,270.55834409241726,645,270.55834409241726" fill="none" stroke="#ccc"/><path d="M430,305.6617154166398C537.5,305.6617154166398,537.5,289.481550295641,645,289.481550295641" fill="none" stroke="#ccc"/><path d="M430,305.6617154166398C537.5,305.6617154166398,537.5,304.6428770677012,645,304.6428770677012" fill="none" stroke="#ccc"/><path d="M430,305.6617154166398C537.5,305.6617154166398,537.5,318.35137172895446,645,318.35137172895446" fill="none" stroke="#ccc"/><path d="M430,305.6617154166398C537.5,305.6617154166398,537.5,330.3631778219863,645,330.3631778219863" fill="none" stroke="#ccc"/><path d="M430,305.6617154166398C537.5,305.6617154166398,537.5,340.7650867408624,645,340.7650867408624" fill="none" stroke="#ccc"/><path d="M430,358.2347361989108C537.5,358.2347361989108,537.5,358.2347361989108,645,358.2347361989108" fill="none" stroke="#ccc"/><path d="M430,377.7137079954412C537.5,377.7137079954412,537.5,377.7137079954412,645,377.7137079954412" fill="none" stroke="#ccc"/><path d="M430,397.4468862099547C537.5,397.4468862099547,537.5,391.63783170413404,645,391.63783170413404" fill="none" stroke="#ccc"/><path d="M430,397.4468862099547C537.5,397.4468862099547,537.5,403.2559407157754,645,403.2559407157754" fill="none" stroke="#ccc"/><path d="M430,414.3412409338208C537.5,414.3412409338208,537.5,414.3412409338208,645,414.3412409338208" fill="none" stroke="#ccc"/><path d="M430,430.2666096173466C537.5,430.2666096173466,537.5,425.49658071689333,645,425.49658071689333" fill="none" stroke="#ccc"/><path d="M430,430.2666096173466C537.5,430.2666096173466,537.5,435.0366385177998,645,435.0366385177998" fill="none" stroke="#ccc"/><path d="M430,482.35110793677336C537.5,482.35110793677336,537.5,451.7798168950169,645,451.7798168950169" fill="none" stroke="#ccc"/><path d="M430,482.35110793677336C537.5,482.35110793677336,537.5,470.36403162297927,645,470.36403162297927" fill="none" stroke="#ccc"/><path d="M430,482.35110793677336C537.5,482.35110793677336,537.5,482.74688322502686,645,482.74688322502686" fill="none" stroke="#ccc"/><path d="M430,482.35110793677336C537.5,482.35110793677336,537.5,493.55978643373743,645,493.55978643373743" fill="none" stroke="#ccc"/><path d="M430,482.35110793677336C537.5,482.35110793677336,537.5,503.3368874458983,645,503.3368874458983" fill="none" stroke="#ccc"/><path d="M430,482.35110793677336C537.5,482.35110793677336,537.5,512.9223989785298,645,512.9223989785298" fill="none" stroke="#ccc"/><path d="M430,524.4134715979752C537.5,524.4134715979752,537.5,524.4134715979752,645,524.4134715979752" fill="none" stroke="#ccc"/><path d="M430,542.8368599194994C537.5,542.8368599194994,537.5,537.0664151646153,645,537.0664151646153" fill="none" stroke="#ccc"/><path d="M430,542.8368599194994C537.5,542.8368599194994,537.5,548.6073046743834,645,548.6073046743834" fill="none" stroke="#ccc"/><path d="M430,565.2609468906461C537.5,565.2609468906461,537.5,559.9628869131545,645,559.9628869131545" fill="none" stroke="#ccc"/><path d="M430,565.2609468906461C537.5,565.2609468906461,537.5,570.5590068681379,645,570.5590068681379" fill="none" stroke="#ccc"/></g><g id="nodes"><g transform="translate(0,341.2330439835729)"><circle fill="#ccc" r="21.9815797993629"/><text text-anchor="end" dominant-baseline="text-before-edge" transform="translate(0,0)"><tspan x="-23.9815797993629" y="0" dy="0" style="font-family: Arial, sans-serif; font-size: 10px; fill: black; font-weight: normal;"/></text></g><g id="celu" transform="translate(215,158.66006055343587)"><circle fill="#ccc" r="15.015473064635035"/><text text-anchor="end" dominant-baseline="text-before-edge" transform="translate(0,-5.5)"><tspan x="-17.015473064635035" y="0" dy="0" style="font-family: Arial, sans-serif; font-size: 10px; fill: black; font-weight: normal;">celu</tspan></text></g><g id="mac" transform="translate(215,367.9641625169932)"><circle fill="#ccc" r="13.007265057199282"/><text text-anchor="end" dominant-baseline="text-before-edge" transform="translate(0,-5.5)"><tspan x="-15.007265057199282" y="0" dy="0" style="font-family: Arial, sans-serif; font-size: 10px; fill: black; font-weight: normal;">mac</tspan></text></g><g id="ipad" transform="translate(215,523.8060274137098)"><circle fill="#ccc" r="9.409382277957532"/><text text-anchor="end" dominant-baseline="text-before-edge" transform="translate(0,-5.5)"><tspan x="-11.409382277957532" y="0" dy="0" style="font-family: Arial, sans-serif; font-size: 10px; fill: black; font-weight: normal;">ipad</tspan></text></g><g id="Social" transform="translate(430,62.24606309626658)"><circle fill="#17becf" r="12.582307181513583"/><text text-anchor="end" dominant-baseline="text-before-edge" transform="translate(0,-5.5)"><tspan x="-14.582307181513583" y="0" dy="0" style="font-family: Arial, sans-serif; font-size: 10px; fill: black; font-weight: normal;">Social</tspan></text></g><g id="Games" transform="translate(430,129.55511519638128)"><circle fill="#ff7f0e" r="5.667897020762648"/><text text-anchor="end" dominant-baseline="text-before-edge" transform="translate(0,-5.5)"><tspan x="-7.667897020762648" y="0" dy="0" style="font-family: Arial, sans-serif; font-size: 10px; fill: black; font-weight: normal;">Games</tspan></text></g><g id="Location &amp; Travel" transform="translate(430,165.13318999098038)"><circle fill="#d62728" r="5.046229419554788"/><text text-anchor="end" dominant-baseline="text-before-edge" transform="translate(0,-5.5)"><tspan x="-7.046229419554788" y="0" dy="0" style="font-family: Arial, sans-serif; font-size: 10px; fill: black; font-weight: normal;">Location &amp; Travel</tspan></text></g><g id="Search" transform="translate(430,193.04067783771316)"><circle fill="#7f7f7f" r="2.1603168137660984"/><text text-anchor="end" dominant-baseline="text-before-edge" transform="translate(0,-5.5)"><tspan x="-4.160316813766098" y="0" dy="0" style="font-family: Arial, sans-serif; font-size: 10px; fill: black; font-weight: normal;">Search</tspan></text></g><g id="Photo &amp; Video" transform="translate(430,210.13522740272208)"><circle fill="#8c564b" r="1.592915898678521"/><text text-anchor="end" dominant-baseline="text-before-edge" transform="translate(0,-5.5)"><tspan x="-3.592915898678521" y="0" dy="0" style="font-family: Arial, sans-serif; font-size: 10px; fill: black; font-weight: normal;">Photo &amp; Video</tspan></text></g><g id="Shopping &amp; Food" transform="translate(430,230.26401621187003)"><circle fill="#bcbd22" r="1.0853892287926747"/><text text-anchor="end" dominant-baseline="text-before-edge" transform="translate(0,-5.55224609375)"><tspan x="-3.0853892287926747" y="0" dy="0" style="font-family: Arial, sans-serif; font-size: 10px; fill: black; font-weight: normal;">Shopping &amp; Food</tspan></text></g><g id="Education" transform="translate(430,245.2592008744178)"><circle fill="#1f77b4" r="0.9519493271820874"/><text text-anchor="end" dominant-baseline="text-before-edge" transform="translate(0,-5.5)"><tspan x="-2.9519493271820876" y="0" dy="0" style="font-family: Arial, sans-serif; font-size: 10px; fill: black; font-weight: normal;">Education</tspan></text></g><g id="Health" transform="translate(430,255.07405801060517)"><circle fill="#2ca02c" r="0.521404120099495"/><text text-anchor="end" dominant-baseline="text-before-edge" transform="translate(0,-5.5)"><tspan x="-2.521404120099495" y="0" dy="0" style="font-family: Arial, sans-serif; font-size: 10px; fill: black; font-weight: normal;">Health</tspan></text></g><g id="Programming" transform="translate(430,305.6617154166398)"><circle fill="#e377c2" r="8.830580797830061"/><text text-anchor="end" dominant-baseline="text-before-edge" transform="translate(0,-5.55224609375)"><tspan x="-10.830580797830061" y="0" dy="0" style="font-family: Arial, sans-serif; font-size: 10px; fill: black; font-weight: normal;">Programming</tspan></text></g><g id="Search" transform="translate(430,358.2347361989108)"><circle fill="#7f7f7f" r="8.337032859523243"/><text text-anchor="end" dominant-baseline="text-before-edge" transform="translate(0,-5.5)"><tspan x="-10.337032859523243" y="0" dy="0" style="font-family: Arial, sans-serif; font-size: 10px; fill: black; font-weight: normal;">Search</tspan></text></g><g id="Social" transform="translate(430,377.7137079954412)"><circle fill="#17becf" r="2.9418160769394124"/><text text-anchor="end" dominant-baseline="text-before-edge" transform="translate(0,-5.5)"><tspan x="-4.941816076939412" y="0" dy="0" style="font-family: Arial, sans-serif; font-size: 10px; fill: black; font-weight: normal;">Social</tspan></text></g><g id="Education" transform="translate(430,397.4468862099547)"><circle fill="#1f77b4" r="2.7672104287286365"/><text text-anchor="end" dominant-baseline="text-before-edge" transform="translate(0,-5.5)"><tspan x="-4.767210428728637" y="0" dy="0" style="font-family: Arial, sans-serif; font-size: 10px; fill: black; font-weight: normal;">Education</tspan></text></g><g id="Photo &amp; Video" transform="translate(430,414.3412409338208)"><circle fill="#8c564b" r="2.1603168137660984"/><text text-anchor="end" dominant-baseline="text-before-edge" transform="translate(0,-5.5)"><tspan x="-4.160316813766098" y="0" dy="0" style="font-family: Arial, sans-serif; font-size: 10px; fill: black; font-weight: normal;">Photo &amp; Video</tspan></text></g><g id="Miscelaneous" transform="translate(430,430.2666096173466)"><circle fill="#9467bd" r="0.8514493626857342"/><text text-anchor="end" dominant-baseline="text-before-edge" transform="translate(0,-5.5)"><tspan x="-2.8514493626857345" y="0" dy="0" style="font-family: Arial, sans-serif; font-size: 10px; fill: black; font-weight: normal;">Miscelaneous</tspan></text></g><g id="Education" transform="translate(430,482.35110793677336)"><circle fill="#1f77b4" r="8.58339510332441"/><text text-anchor="end" dominant-baseline="text-before-edge" transform="translate(0,-5.5)"><tspan x="-10.58339510332441" y="0" dy="0" style="font-family: Arial, sans-serif; font-size: 10px; fill: black; font-weight: normal;">Education</tspan></text></g><g id="Search" transform="translate(430,524.4134715979752)"><circle fill="#7f7f7f" r="2.5720254483798817"/><text text-anchor="end" dominant-baseline="text-before-edge" transform="translate(0,-5.5)"><tspan x="-4.572025448379882" y="0" dy="0" style="font-family: Arial, sans-serif; font-size: 10px; fill: black; font-weight: normal;">Search</tspan></text></g><g id="Miscelaneous" transform="translate(430,542.8368599194994)"><circle fill="#9467bd" r="2.292597571496159"/><text text-anchor="end" dominant-baseline="text-before-edge" transform="translate(0,-5.5)"><tspan x="-4.2925975714961595" y="0" dy="0" style="font-family: Arial, sans-serif; font-size: 10px; fill: black; font-weight: normal;">Miscelaneous</tspan></text></g><g id="Social" transform="translate(430,565.2609468906461)"><circle fill="#17becf" r="1.7293018305154295"/><text text-anchor="end" dominant-baseline="text-before-edge" transform="translate(0,-5.5)"><tspan x="-3.7293018305154293" y="0" dy="0" style="font-family: Arial, sans-serif; font-size: 10px; fill: black; font-weight: normal;">Social</tspan></text></g><g id="Instagram" transform="translate(645,9.440993131862172)"><circle fill="#17becf" r="10"/><text text-anchor="start" dominant-baseline="text-before-edge" transform="translate(0,-5.55224609375)"><tspan x="12" y="0" dy="0" style="font-family: Arial, sans-serif; font-size: 10px; fill: black; font-weight: bold;">Instagram</tspan></text></g><g id="WhatsApp" transform="translate(645,33.659786730128566)"><circle fill="#17becf" r="6.088011796166901"/><text text-anchor="start" dominant-baseline="text-before-edge" transform="translate(0,-5.5)"><tspan x="8.088011796166901" y="0" dy="0" style="font-family: Arial, sans-serif; font-size: 10px; fill: black; font-weight: bold;">WhatsApp</tspan></text></g><g id="Tiktok" transform="translate(645,52.12313560060235)"><circle fill="#17becf" r="4.16035619401493"/><text text-anchor="start" dominant-baseline="text-before-edge" transform="translate(0,-5.5)"><tspan x="6.16035619401493" y="0" dy="0" style="font-family: Arial, sans-serif; font-size: 10px; fill: black; font-weight: bold;">Tiktok</tspan></text></g><g id="Spotify" transform="translate(645,65.75433183813585)"><circle fill="#17becf" r="1.1851673545789911"/><text text-anchor="start" dominant-baseline="text-before-edge" transform="translate(0,-5.55224609375)"><tspan x="3.185167354578991" y="0" dy="0" style="font-family: Arial, sans-serif; font-size: 10px; fill: black; font-weight: bold;">Spotify</tspan></text></g><g id="Pinterest" transform="translate(645,76.24655122292847)"><circle fill="#17becf" r="0.9754577887323214"/><text text-anchor="start" dominant-baseline="text-before-edge" transform="translate(0,-5.5)"><tspan x="2.9754577887323213" y="0" dy="0" style="font-family: Arial, sans-serif; font-size: 10px; fill: black; font-weight: bold;">Pinterest</tspan></text></g><g id="Mail" transform="translate(645,86.26649688117995)"><circle fill="#17becf" r="0.7059845160039531"/><text text-anchor="start" dominant-baseline="text-before-edge" transform="translate(0,-5.5)"><tspan x="2.7059845160039533" y="0" dy="0" style="font-family: Arial, sans-serif; font-size: 10px; fill: black; font-weight: bold;">Mail</tspan></text></g><g id="LinkedIn" transform="translate(645,95.95442895389941)"><circle fill="#17becf" r="0.6385870220143007"/><text text-anchor="start" dominant-baseline="text-before-edge" transform="translate(0,-5.5)"><tspan x="2.638587022014301" y="0" dy="0" style="font-family: Arial, sans-serif; font-size: 10px; fill: black; font-weight: bold;">LinkedIn</tspan></text></g><g id="X" transform="translate(645,105.5399404865311)"><circle fill="#17becf" r="0.6020656181920468"/><text text-anchor="start" dominant-baseline="text-before-edge" transform="translate(0,-5.5)"><tspan x="2.602065618192047" y="0" dy="0" style="font-family: Arial, sans-serif; font-size: 10px; fill: black; font-weight: bold;">X</tspan></text></g><g id="YouTube" transform="translate(645,115.05113306067099)"><circle fill="#17becf" r="0.5631808169077229"/><text text-anchor="start" dominant-baseline="text-before-edge" transform="translate(0,-5.5)"><tspan x="2.563180816907723" y="0" dy="0" style="font-family: Arial, sans-serif; font-size: 10px; fill: black; font-weight: bold;">YouTube</tspan></text></g><g id="Juego" transform="translate(645,129.55511519638128)"><circle fill="#ff7f0e" r="5.667897020762648"/><text text-anchor="start" dominant-baseline="text-before-edge" transform="translate(0,-5.55224609375)"><tspan x="7.667897020762648" y="0" dy="0" style="font-family: Arial, sans-serif; font-size: 10px; fill: black; font-weight: bold;">Juego</tspan></text></g><g id="Waze" transform="translate(645,148.311002362293)"><circle fill="#d62728" r="4.877288943661607"/><text text-anchor="start" dominant-baseline="text-before-edge" transform="translate(0,-5.5)"><tspan x="6.877288943661607" y="0" dy="0" style="font-family: Arial, sans-serif; font-size: 10px; fill: black; font-weight: bold;">Waze</tspan></text></g><g id="FindMy" transform="translate(645,162.39518251436544)"><circle fill="#d62728" r="0.9278454318723067"/><text text-anchor="start" dominant-baseline="text-before-edge" transform="translate(0,-5.55224609375)"><tspan x="2.927845431872307" y="0" dy="0" style="font-family: Arial, sans-serif; font-size: 10px; fill: black; font-weight: bold;">FindMy</tspan></text></g><g id="Cabify" transform="translate(645,172.3358213408821)"><circle fill="#d62728" r="0.6731298245964255"/><text text-anchor="start" dominant-baseline="text-before-edge" transform="translate(0,-5.55224609375)"><tspan x="2.6731298245964252" y="0" dy="0" style="font-family: Arial, sans-serif; font-size: 10px; fill: black; font-weight: bold;">Cabify</tspan></text></g><g id="Maps" transform="translate(645,181.95537761966776)"><circle fill="#d62728" r="0.6020656181920468"/><text text-anchor="start" dominant-baseline="text-before-edge" transform="translate(0,-5.5)"><tspan x="2.602065618192047" y="0" dy="0" style="font-family: Arial, sans-serif; font-size: 10px; fill: black; font-weight: bold;">Maps</tspan></text></g><g id="Safari" transform="translate(645,193.04067783771316)"><circle fill="#7f7f7f" r="2.1603168137660984"/><text text-anchor="start" dominant-baseline="text-before-edge" transform="translate(0,-5.5)"><tspan x="4.160316813766098" y="0" dy="0" style="font-family: Arial, sans-serif; font-size: 10px; fill: black; font-weight: bold;">Safari</tspan></text></g><g id="Photos" transform="translate(645,204.87592512581452)"><circle fill="#8c564b" r="1.3629840127899442"/><text text-anchor="start" dominant-baseline="text-before-edge" transform="translate(0,-5.5)"><tspan x="3.362984012789944" y="0" dy="0" style="font-family: Arial, sans-serif; font-size: 10px; fill: black; font-weight: bold;">Photos</tspan></text></g><g id="Camera" transform="translate(645,215.39452967962967)"><circle fill="#8c564b" r="0.8244123004551919"/><text text-anchor="start" dominant-baseline="text-before-edge" transform="translate(0,-5.5)"><tspan x="2.824412300455192" y="0" dy="0" style="font-family: Arial, sans-serif; font-size: 10px; fill: black; font-weight: bold;">Camera</tspan></text></g><g id="Amazon" transform="translate(645,225.32622250918982)"><circle fill="#bcbd22" r="0.7674860839061375"/><text text-anchor="start" dominant-baseline="text-before-edge" transform="translate(0,-5.5)"><tspan x="2.7674860839061375" y="0" dy="0" style="font-family: Arial, sans-serif; font-size: 10px; fill: black; font-weight: bold;">Amazon</tspan></text></g><g id="Rappi" transform="translate(645,235.2018099145502)"><circle fill="#bcbd22" r="0.7674860839061375"/><text text-anchor="start" dominant-baseline="text-before-edge" transform="translate(0,-5.5)"><tspan x="2.7674860839061375" y="0" dy="0" style="font-family: Arial, sans-serif; font-size: 10px; fill: black; font-weight: bold;">Rappi</tspan></text></g><g id="Preview" transform="translate(645,245.2592008744178)"><circle fill="#1f77b4" r="0.9519493271820874"/><text text-anchor="start" dominant-baseline="text-before-edge" transform="translate(0,-5.5)"><tspan x="2.9519493271820876" y="0" dy="0" style="font-family: Arial, sans-serif; font-size: 10px; fill: black; font-weight: bold;">Preview</tspan></text></g><g id="Health" transform="translate(645,255.07405801060517)"><circle fill="#2ca02c" r="0.521404120099495"/><text text-anchor="start" dominant-baseline="text-before-edge" transform="translate(0,-5.5)"><tspan x="2.521404120099495" y="0" dy="0" style="font-family: Arial, sans-serif; font-size: 10px; fill: black; font-weight: bold;">Health</tspan></text></g><g id="VSCode" transform="translate(645,270.55834409241726)"><circle fill="#e377c2" r="6.70431898610981"/><text text-anchor="start" dominant-baseline="text-before-edge" transform="translate(0,-5.5)"><tspan x="8.70431898610981" y="0" dy="0" style="font-family: Arial, sans-serif; font-size: 10px; fill: black; font-weight: bold;">VSCode</tspan></text></g><g id="IntelliJ" transform="translate(645,289.481550295641)"><circle fill="#e377c2" r="4.010633803655367"/><text text-anchor="start" dominant-baseline="text-before-edge" transform="translate(0,-5.5)"><tspan x="6.010633803655367" y="0" dy="0" style="font-family: Arial, sans-serif; font-size: 10px; fill: black; font-weight: bold;">IntelliJ</tspan></text></g><g id="VirtualBox" transform="translate(645,304.6428770677012)"><circle fill="#e377c2" r="2.8874052708281783"/><text text-anchor="start" dominant-baseline="text-before-edge" transform="translate(0,-5.5)"><tspan x="4.887405270828179" y="0" dy="0" style="font-family: Arial, sans-serif; font-size: 10px; fill: black; font-weight: bold;">VirtualBox</tspan></text></g><g id="Terminal" transform="translate(645,318.35137172895446)"><circle fill="#e377c2" r="2.5365475360831"/><text text-anchor="start" dominant-baseline="text-before-edge" transform="translate(0,-5.5)"><tspan x="4.5365475360831" y="0" dy="0" style="font-family: Arial, sans-serif; font-size: 10px; fill: black; font-weight: bold;">Terminal</tspan></text></g><g id="GitDesktop" transform="translate(645,330.3631778219863)"><circle fill="#e377c2" r="1.1658950562909352"/><text text-anchor="start" dominant-baseline="text-before-edge" transform="translate(0,-5.5)"><tspan x="3.1658950562909354" y="0" dy="0" style="font-family: Arial, sans-serif; font-size: 10px; fill: black; font-weight: bold;">GitDesktop</tspan></text></g><g id="Cursor" transform="translate(645,340.7650867408624)"><circle fill="#e377c2" r="0.9030984272880702"/><text text-anchor="start" dominant-baseline="text-before-edge" transform="translate(0,-5.5)"><tspan x="2.90309842728807" y="0" dy="0" style="font-family: Arial, sans-serif; font-size: 10px; fill: black; font-weight: bold;">Cursor</tspan></text></g><g id="google" transform="translate(645,358.2347361989108)"><circle fill="#7f7f7f" r="8.337032859523243"/><text text-anchor="start" dominant-baseline="text-before-edge" transform="translate(0,-5.55224609375)"><tspan x="10.337032859523243" y="0" dy="0" style="font-family: Arial, sans-serif; font-size: 10px; fill: black; font-weight: bold;">google</tspan></text></g><g id="Discord" transform="translate(645,377.7137079954412)"><circle fill="#17becf" r="2.9418160769394124"/><text text-anchor="start" dominant-baseline="text-before-edge" transform="translate(0,-5.5)"><tspan x="4.941816076939412" y="0" dy="0" style="font-family: Arial, sans-serif; font-size: 10px; fill: black; font-weight: bold;">Discord</tspan></text></g><g id="OneNote" transform="translate(645,391.63783170413404)"><circle fill="#1f77b4" r="2.700920315051066"/><text text-anchor="start" dominant-baseline="text-before-edge" transform="translate(0,-5.5)"><tspan x="4.700920315051066" y="0" dy="0" style="font-family: Arial, sans-serif; font-size: 10px; fill: black; font-weight: bold;">OneNote</tspan></text></g><g id="Respondus" transform="translate(645,403.2559407157754)"><circle fill="#1f77b4" r="0.6020656181920468"/><text text-anchor="start" dominant-baseline="text-before-edge" transform="translate(0,-5.5)"><tspan x="2.602065618192047" y="0" dy="0" style="font-family: Arial, sans-serif; font-size: 10px; fill: black; font-weight: bold;">Respondus</tspan></text></g><g id="QuickTime Player" transform="translate(645,414.3412409338208)"><circle fill="#8c564b" r="2.1603168137660984"/><text text-anchor="start" dominant-baseline="text-before-edge" transform="translate(0,-5.55224609375)"><tspan x="4.160316813766098" y="0" dy="0" style="font-family: Arial, sans-serif; font-size: 10px; fill: black; font-weight: bold;">QuickTime Player</tspan></text></g><g id="Notas" transform="translate(645,425.49658071689333)"><circle fill="#9467bd" r="0.6731298245964255"/><text text-anchor="start" dominant-baseline="text-before-edge" transform="translate(0,-5.5)"><tspan x="2.6731298245964252" y="0" dy="0" style="font-family: Arial, sans-serif; font-size: 10px; fill: black; font-weight: bold;">Notas</tspan></text></g><g id="Settings" transform="translate(645,435.0366385177998)"><circle fill="#9467bd" r="0.521404120099495"/><text text-anchor="start" dominant-baseline="text-before-edge" transform="translate(0,-5.55224609375)"><tspan x="2.521404120099495" y="0" dy="0" style="font-family: Arial, sans-serif; font-size: 10px; fill: black; font-weight: bold;">Settings</tspan></text></g><g id="OneNote" transform="translate(645,451.7798168950169)"><circle fill="#1f77b4" r="7.981628202505222"/><text text-anchor="start" dominant-baseline="text-before-edge" transform="translate(0,-5.5)"><tspan x="9.981628202505222" y="0" dy="0" style="font-family: Arial, sans-serif; font-size: 10px; fill: black; font-weight: bold;">OneNote</tspan></text></g><g id="Books" transform="translate(645,470.36403162297927)"><circle fill="#1f77b4" r="2.3893738480177817"/><text text-anchor="start" dominant-baseline="text-before-edge" transform="translate(0,-5.5)"><tspan x="4.389373848017781" y="0" dy="0" style="font-family: Arial, sans-serif; font-size: 10px; fill: black; font-weight: bold;">Books</tspan></text></g><g id="Drive" transform="translate(645,482.74688322502686)"><circle fill="#1f77b4" r="1.6895424507231689"/><text text-anchor="start" dominant-baseline="text-before-edge" transform="translate(0,-5.5)"><tspan x="3.689542450723169" y="0" dy="0" style="font-family: Arial, sans-serif; font-size: 10px; fill: black; font-weight: bold;">Drive</tspan></text></g><g id="Sheets" transform="translate(645,493.55978643373743)"><circle fill="#1f77b4" r="0.7964579493392605"/><text text-anchor="start" dominant-baseline="text-before-edge" transform="translate(0,-5.5)"><tspan x="2.7964579493392607" y="0" dy="0" style="font-family: Arial, sans-serif; font-size: 10px; fill: black; font-weight: bold;">Sheets</tspan></text></g><g id="RawGraphs" transform="translate(645,503.3368874458983)"><circle fill="#1f77b4" r="0.6385870220143007"/><text text-anchor="start" dominant-baseline="text-before-edge" transform="translate(0,-5.5)"><tspan x="2.638587022014301" y="0" dy="0" style="font-family: Arial, sans-serif; font-size: 10px; fill: black; font-weight: bold;">RawGraphs</tspan></text></g><g id="Campus" transform="translate(645,512.9223989785298)"><circle fill="#1f77b4" r="0.6020656181920468"/><text text-anchor="start" dominant-baseline="text-before-edge" transform="translate(0,-5.5)"><tspan x="2.602065618192047" y="0" dy="0" style="font-family: Arial, sans-serif; font-size: 10px; fill: black; font-weight: bold;">Campus</tspan></text></g><g id="Safari" transform="translate(645,524.4134715979752)"><circle fill="#7f7f7f" r="2.5720254483798817"/><text text-anchor="start" dominant-baseline="text-before-edge" transform="translate(0,-5.5)"><tspan x="4.572025448379882" y="0" dy="0" style="font-family: Arial, sans-serif; font-size: 10px; fill: black; font-weight: bold;">Safari</tspan></text></g><g id="Files" transform="translate(645,537.0664151646153)"><circle fill="#9467bd" r="1.7809341159426704"/><text text-anchor="start" dominant-baseline="text-before-edge" transform="translate(0,-5.5)"><tspan x="3.7809341159426704" y="0" dy="0" style="font-family: Arial, sans-serif; font-size: 10px; fill: black; font-weight: bold;">Files</tspan></text></g><g id="Settings" transform="translate(645,548.6073046743834)"><circle fill="#9467bd" r="1.4437026354140892"/><text text-anchor="start" dominant-baseline="text-before-edge" transform="translate(0,-5.55224609375)"><tspan x="3.4437026354140894" y="0" dy="0" style="font-family: Arial, sans-serif; font-size: 10px; fill: black; font-weight: bold;">Settings</tspan></text></g><g id="WhatsApp" transform="translate(645,559.9628869131545)"><circle fill="#17becf" r="1.592915898678521"/><text text-anchor="start" dominant-baseline="text-before-edge" transform="translate(0,-5.5)"><tspan x="3.592915898678521" y="0" dy="0" style="font-family: Arial, sans-serif; font-size: 10px; fill: black; font-weight: bold;">WhatsApp</tspan></text></g><g id="Netflix" transform="translate(645,570.5590068681379)"><circle fill="#17becf" r="0.6731298245964255"/><text text-anchor="start" dominant-baseline="text-before-edge" transform="translate(0,-5.5)"><tspan x="2.6731298245964252" y="0" dy="0" style="font-family: Arial, sans-serif; font-size: 10px; fill: black; font-weight: bold;">Netflix</tspan></text></g></g></g><g id="legend" transform="translate(805,10)"><g transform="translate(5,0)"><g class="legendSize" transform="translate(0,0)"><g class="legendCells" transform="translate(10,15.5)"><g class="cell" transform="translate(0, 0)"><circle class="swatch" r="0" fill="none" stroke="#ccc"/><text class="label" transform="translate( 15,&#10;          5)" font-family="&quot;Arial&quot;, sans-serif" font-size="10px"><tspan x="0" dy="0em">0.0</tspan></text></g><g class="cell" transform="translate(0, 25.5)"><circle class="swatch" r="10" fill="none" stroke="#ccc"/><text class="label" transform="translate( 15,&#10;          5)" font-family="&quot;Arial&quot;, sans-serif" font-size="10px"><tspan x="0" dy="0em">2207.0</tspan></text></g></g><text class="legendTitle" font-family="&quot;Arial&quot;, sans-serif" font-size="12px" font-weight="bold"><tspan x="0" dy="0em">minutos por app</tspan></text></g><g class="legendColor" transform="translate(0,83.5)"><g class="legendCells" transform="translate(0,15.5)"><g class="cell" transform="translate(0, 0)"><rect class="swatch" height="15" width="15" style="fill: rgb(31, 119, 180);"/><text class="label" transform="translate( 20, 12.5)" font-family="&quot;Arial&quot;, sans-serif" font-size="10px"><tspan x="0" dy="0em">Education</tspan></text></g><g class="cell" transform="translate(0, 20.5)"><rect class="swatch" height="15" width="15" style="fill: rgb(255, 127, 14);"/><text class="label" transform="translate( 20, 12.5)" font-family="&quot;Arial&quot;, sans-serif" font-size="10px"><tspan x="0" dy="0em">Games</tspan></text></g><g class="cell" transform="translate(0, 41)"><rect class="swatch" height="15" width="15" style="fill: rgb(44, 160, 44);"/><text class="label" transform="translate( 20, 12.5)" font-family="&quot;Arial&quot;, sans-serif" font-size="10px"><tspan x="0" dy="0em">Health</tspan></text></g><g class="cell" transform="translate(0, 61.5)"><rect class="swatch" height="15" width="15" style="fill: rgb(214, 39, 40);"/><text class="label" transform="translate( 20, 12.5)" font-family="&quot;Arial&quot;, sans-serif" font-size="10px"><tspan x="0" dy="0em">Location &amp; Travel</tspan></text></g><g class="cell" transform="translate(0, 82)"><rect class="swatch" height="15" width="15" style="fill: rgb(148, 103, 189);"/><text class="label" transform="translate( 20, 12.5)" font-family="&quot;Arial&quot;, sans-serif" font-size="10px"><tspan x="0" dy="0em">Miscelaneous</tspan></text></g><g class="cell" transform="translate(0, 102.5)"><rect class="swatch" height="15" width="15" style="fill: rgb(140, 86, 75);"/><text class="label" transform="translate( 20, 12.5)" font-family="&quot;Arial&quot;, sans-serif" font-size="10px"><tspan x="0" dy="0em">Photo &amp; Video</tspan></text></g><g class="cell" transform="translate(0, 123)"><rect class="swatch" height="15" width="15" style="fill: rgb(227, 119, 194);"/><text class="label" transform="translate( 20, 12.5)" font-family="&quot;Arial&quot;, sans-serif" font-size="10px"><tspan x="0" dy="0em">Programming</tspan></text></g><g class="cell" transform="translate(0, 143.5)"><rect class="swatch" height="15" width="15" style="fill: rgb(127, 127, 127);"/><text class="label" transform="translate( 20, 12.5)" font-family="&quot;Arial&quot;, sans-serif" font-size="10px"><tspan x="0" dy="0em">Search</tspan></text></g><g class="cell" transform="translate(0, 164)"><rect class="swatch" height="15" width="15" style="fill: rgb(188, 189, 34);"/><text class="label" transform="translate( 20, 12.5)" font-family="&quot;Arial&quot;, sans-serif" font-size="10px"><tspan x="0" dy="0em">Shopping &amp; Food</tspan></text></g><g class="cell" transform="translate(0, 184.5)"><rect class="swatch" height="15" width="15" style="fill: rgb(23, 190, 207);"/><text class="label" transform="translate( 20, 12.5)" font-family="&quot;Arial&quot;, sans-serif" font-size="10px"><tspan x="0" dy="0em">Social</tspan></text></g></g><text class="legendTitle" font-family="&quot;Arial&quot;, sans-serif" font-size="12px" font-weight="bold"><tspan x="0" dy="0em">categoria</tspan></text></g></g></g></svg>